<svg xmlns="http://www.w3.org/2000/svg" version="1.1" xmlns:xlink="http://www.w3.org/1999/xlink" xmlns:svgjs="http://svgjs.dev/svgjs" viewBox="0 0 2400 800"><defs><linearGradient x1="50%" y1="0%" x2="50%" y2="100%" id="sssurf-grad"><stop stop-color="rgb(31 ,41 ,55)" stop-opacity="1" offset="0%"></stop><stop stop-color="rgba(17, 24, 39, 1.00)" stop-opacity="1" offset="100%"></stop></linearGradient></defs><g fill="url(#sssurf-grad)" transform="matrix(1,0,0,1,0,-93.74386596679688)"><path d="M 0 307.487767175409 Q 450 450.1043807023352 600 336.2570720831206 Q 1050 531.3059425722187 1200 338.9978609294795 Q 1650 501.9003158747246 1800 340.21788911465194 Q 2250 551.2508266467288 2400 323.61250970518597 L 2400 800 L 0 800 L 0 315.49170393678895 Z" transform="matrix(1,0,0,1,0,35)" opacity="0.05"></path><path d="M 0 307.487767175409 Q 450 450.1043807023352 600 336.2570720831206 Q 1050 531.3059425722187 1200 338.9978609294795 Q 1650 501.9003158747246 1800 340.21788911465194 Q 2250 551.2508266467288 2400 323.61250970518597 L 2400 800 L 0 800 L 0 315.49170393678895 Z" transform="matrix(1,0,0,1,0,70)" opacity="0.21"></path><path d="M 0 307.487767175409 Q 450 450.1043807023352 600 336.2570720831206 Q 1050 531.3059425722187 1200 338.9978609294795 Q 1650 501.9003158747246 1800 340.21788911465194 Q 2250 551.2508266467288 2400 323.61250970518597 L 2400 800 L 0 800 L 0 315.49170393678895 Z" transform="matrix(1,0,0,1,0,105)" opacity="0.37"></path><path d="M 0 307.487767175409 Q 450 450.1043807023352 600 336.2570720831206 Q 1050 531.3059425722187 1200 338.9978609294795 Q 1650 501.9003158747246 1800 340.21788911465194 Q 2250 551.2508266467288 2400 323.61250970518597 L 2400 800 L 0 800 L 0 315.49170393678895 Z" transform="matrix(1,0,0,1,0,140)" opacity="0.53"></path><path d="M 0 307.487767175409 Q 450 450.1043807023352 600 336.2570720831206 Q 1050 531.3059425722187 1200 338.9978609294795 Q 1650 501.9003158747246 1800 340.21788911465194 Q 2250 551.2508266467288 2400 323.61250970518597 L 2400 800 L 0 800 L 0 315.49170393678895 Z" transform="matrix(1,0,0,1,0,175)" opacity="0.68"></path><path d="M 0 307.487767175409 Q 450 450.1043807023352 600 336.2570720831206 Q 1050 531.3059425722187 1200 338.9978609294795 Q 1650 501.9003158747246 1800 340.21788911465194 Q 2250 551.2508266467288 2400 323.61250970518597 L 2400 800 L 0 800 L 0 315.49170393678895 Z" transform="matrix(1,0,0,1,0,210)" opacity="0.84"></path><path d="M 0 307.487767175409 Q 450 450.1043807023352 600 336.2570720831206 Q 1050 531.3059425722187 1200 338.9978609294795 Q 1650 501.9003158747246 1800 340.21788911465194 Q 2250 551.2508266467288 2400 323.61250970518597 L 2400 800 L 0 800 L 0 315.49170393678895 Z" transform="matrix(1,0,0,1,0,245)" opacity="1.00"></path></g></svg>