<svg xmlns="http://www.w3.org/2000/svg" version="1.1" xmlns:xlink="http://www.w3.org/1999/xlink"
	xmlns:svgjs="http://svgjs.dev/svgjs" viewBox="0 0 2400 800" opacity="0.4">
	<defs>
		<linearGradient x1="50%" y1="0%" x2="50%" y2="100%" id="sssurf-grad">
			<stop stop-color="hsla(0, 0%, 31%, 1.00)" stop-opacity="1" offset="0%"></stop>
			<stop stop-color="hsla(0, 0%, 0%, 1.00)" stop-opacity="1" offset="100%"></stop>
		</linearGradient>
		<mask id="sharp-mask">
			<rect x="0" y="0" width="2400" height="700" fill="white" />
		</mask>
		<filter id="blur-filter">
			<feGaussianBlur stdDeviation="20" />
		</filter>
	</defs>
	<g fill="url(#sssurf-grad)" transform="matrix(1,0,0,1,0,-102.38223266601562)">
		<path
			d="M 0 332.32614004732795 Q 340.45258170501324 450 600 334.312269493261 Q 798.8627818456727 450 1200 300.7645057343037 Q 1422.439805318904 450 1800 334.9060718007495 Q 2029.5661274772128 450 2400 343.4234263966922 L 2400 800 L 0 800 L 0 332.7870352928404 Z"
			transform="matrix(1,0,0,1,0,38)" opacity="0.05"></path>
		<path
			d="M 0 332.32614004732795 Q 340.45258170501324 450 600 334.312269493261 Q 798.8627818456727 450 1200 300.7645057343037 Q 1422.439805318904 450 1800 334.9060718007495 Q 2029.5661274772128 450 2400 343.4234263966922 L 2400 800 L 0 800 L 0 332.7870352928404 Z"
			transform="matrix(1,0,0,1,0,76)" opacity="0.21"></path>
		<path
			d="M 0 332.32614004732795 Q 340.45258170501324 450 600 334.312269493261 Q 798.8627818456727 450 1200 300.7645057343037 Q 1422.439805318904 450 1800 334.9060718007495 Q 2029.5661274772128 450 2400 343.4234263966922 L 2400 800 L 0 800 L 0 332.7870352928404 Z"
			transform="matrix(1,0,0,1,0,114)" opacity="0.37"></path>
		<path
			d="M 0 332.32614004732795 Q 340.45258170501324 450 600 334.312269493261 Q 798.8627818456727 450 1200 300.7645057343037 Q 1422.439805318904 450 1800 334.9060718007495 Q 2029.5661274772128 450 2400 343.4234263966922 L 2400 800 L 0 800 L 0 332.7870352928404 Z"
			transform="matrix(1,0,0,1,0,152)" opacity="0.53"></path>
		<path
			d="M 0 332.32614004732795 Q 340.45258170501324 450 600 334.312269493261 Q 798.8627818456727 450 1200 300.7645057343037 Q 1422.439805318904 450 1800 334.9060718007495 Q 2029.5661274772128 450 2400 343.4234263966922 L 2400 800 L 0 800 L 0 332.7870352928404 Z"
			transform="matrix(1,0,0,1,0,190)" opacity="0.68"></path>
		<path
			d="M 0 332.32614004732795 Q 340.45258170501324 450 600 334.312269493261 Q 798.8627818456727 450 1200 300.7645057343037 Q 1422.439805318904 450 1800 334.9060718007495 Q 2029.5661274772128 450 2400 343.4234263966922 L 2400 800 L 0 800 L 0 332.7870352928404 Z"
			transform="matrix(1,0,0,1,0,228)" opacity="0.84"></path>

		<!-- Blurred path (behind) -->
		<path
			d="M 0 332.32614004732795 Q 340.45258170501324 450 600 334.312269493261 Q 798.8627818456727 450 1200 300.7645057343037 Q 1422.439805318904 450 1800 334.9060718007495 Q 2029.5661274772128 450 2400 343.4234263966922 L 2400 800 C 2400 850 2000 900 1600 900 C 1200 900 800 850 400 900 C 0 950 0 800 0 332.7870352928404 Z"
			fill="url(#sssurf-grad)"
			filter="url(#blur-filter)" />

		<!-- Sharp path (masked) -->
		<path
			d="M 0 332.32614004732795 Q 340.45258170501324 450 600 334.312269493261 Q 798.8627818456727 450 1200 300.7645057343037 Q 1422.439805318904 450 1800 334.9060718007495 Q 2029.5661274772128 450 2400 343.4234263966922 L 2400 800 C 2400 850 2000 900 1600 900 C 1200 900 800 850 400 900 C 0 950 0 800 0 332.7870352928404 Z"
			fill="url(#sssurf-grad)"
			mask="url(#sharp-mask)" />
	</g>
</svg>