<svg xmlns="http://www.w3.org/2000/svg" version="1.1" xmlns:xlink="http://www.w3.org/1999/xlink" xmlns:svgjs="http://svgjs.dev/svgjs" viewBox="0 0 600 600"><path d="M299.6073505341718 105.23559813973912C263.35080705679553 121.46596516447869 198.4293313284427 97.51309066293248 170.81152839061713 155.4973855542899C143.1937254527916 213.48168044564733 91.6230441987226 392.6701659091076 133.9005329072187 453.14136748788366C176.17802161571478 513.6125690666593 384.2932127574791 540.0523426262307 424.4764606415937 518.3245950269456C464.6597085257083 496.59684742766217 365.9686074514895 368.4555078077079 375.0000202119062 322.77488189218053C384.0314329723229 277.0942559766532 467.2775063772707 273.4293237256766 478.6649372040937 244.2408395337821C490.0523680309167 215.05235534188756 458.3769631643801 178.66491942880162 443.3246051728437 147.64397674081334C428.2722471813072 116.62303405282506 412.30366502798694 65.18324650603145 388.35078925487494 58.115183405852406C364.39791348176294 51.04712030567336 335.8638940115481 89.00523111499955 299.6073505341718 105.23559813973912C263.35080705679553 121.46596516447869 198.4293313284427 97.51309066293248 170.81152839061713 155.4973855542899 " fill="hsl(335, 77%, 60%)" transform="matrix(-0.1990168026292874,-1.1286803745499197,1.1286803745499197,-0.1990168026292874,30.536876931976963,696.0320411666496)" stroke-width="35" stroke="hsl(265, 55%, 20%)" fill-opacity="1" stroke-opacity="0.28"></path><defs><radialGradient id="SvgjsRadialGradient1005"><stop stop-color="hsl(340, 45%, 50%)" offset="0"></stop><stop stop-color="hsl(340, 45%, 80%)" offset="1"></stop></radialGradient></defs></svg>