<svg xmlns="http://www.w3.org/2000/svg" version="1.1" xmlns:xlink="http://www.w3.org/1999/xlink" viewBox="0 0 1422 800" style="overflow: hidden; display: block;" width="1422" height="800"><defs></defs><g id="two-0" transform="matrix(1 0 0 1 0 0)" opacity="1"></g><path d="M 657.4956326595691 123.47465548122962 Q 657.4956326595691 123.47465548122962 658.6464238760121 137.7005781376477 659.7972150924552 151.92650079406582 660.9382539534838 165.3442354876242 662.0792928145124 178.7619701811826 663.070574472581 193.5028697559639 664.0618561306496 208.24376933074518 664.9399056326617 224.6612249350946 665.8179551346739 241.07868053944398 666.467576783805 259.3262544776078 667.1171984329361 277.5738284157716 667.5972661561399 296.72523398180056 668.0773338793437 315.8766395478296 667.7065288767627 338.64873375276085 667.3357238741818 361.4208279576921 666.1890588802056 385.37449648782604 665.0423938862294 409.32816501796 662.7405881906743 436.35033854791243 660.4387824951193 463.37251207786494 656.9926523072675 492.3626859242524 653.5465221194156 521.3528597706398 648.6450141957969 547.09835799526 643.7435062721781 572.8438562198802 643.7385528461527 572.8431753596811 643.7335994201273 572.8424944994821 643.728645994102 572.841813639283 643.7236925680766 572.841132779084 645.9435392733479 546.7770181014263 648.1633859786193 520.7129034237686 651.5992076694565 491.8124912442668 655.0350293602937 462.91207906476507 657.3285681787256 435.99036462405195 659.6221069971574 409.0686501833389 660.7638444665388 385.20052671869496 661.9055819359202 361.33240325405103 662.2738751184492 338.6728306666599 662.6421683009781 316.0132580792687 662.158821269772 296.89080090272444 661.6754742385659 277.7683437261802 661.0223037924843 259.5698498037884 660.3691333464026 241.3713558813965 659.4854626385259 224.9921209879381 658.6017919306491 208.61288609447968 657.6033395106135 193.92173854631682 656.6048870905779 179.23059099815399 655.4478566899793 165.80329679576965 654.2908262893807 152.37600259338535 653.1191544320933 138.15178439592162 651.9474825748059 123.92756619845788 651.9606919147952 123.59232563418897 651.9739012547847 123.25708506992004 652.0669575532145 122.93474790495632 652.1600138516443 122.61241073999261 652.3275086720776 122.32171122550676 652.4950034925108 122.0310117110209 652.7272020281143 121.78884531645326 652.9594005637178 121.54667892188563 653.2428074246925 121.36712036946663 653.5262142856672 121.18756181704764 653.8443578519373 121.0810470582804 654.1625014182074 120.97453229951316 654.4968911707534 120.94725197718179 654.8312809232995 120.91997165485043 655.1624821139922 120.97351130257061 655.493683304685 121.02705095029079 655.8024465047599 121.15829884122145 656.1112097048349 121.28954673215212 656.3795895825966 121.49087473270573 656.6479694603584 121.69220273325935 656.8603677647016 121.95190965058438 657.0727660690446 122.2116165679094 657.2168382005412 122.51460822376863 657.3609103320379 122.81759987962786 657.4282828116362 123.14626638474677 657.4956552912346 123.47493288986567 657.4956439754019 123.47479418554764 Z" fill="hsl(0, 0%, 92%)"></path></svg>