<svg xmlns="http://www.w3.org/2000/svg" version="1.1" xmlns:xlink="http://www.w3.org/1999/xlink" viewBox="0 0 1422 800" style="overflow: hidden; display: block;" width="1422" height="800"><defs></defs><g id="two-0" transform="matrix(1 0 0 1 0 0)" opacity="1"></g><path d="M 722.8374744467349 104.77905566061627 Q 722.8374744467349 104.77905566061627 724.7314649080068 114.64833021687657 726.6254553692788 124.51760477313688 728.5986840393034 138.48728757242387 730.5719127093279 152.45697037171087 732.464694345809 171.36937610154487 734.3574759822902 190.28178183137888 735.7549266982094 211.38927740203718 737.1523774141284 232.49677297269548 737.3153064396372 259.2372843201955 737.4782354651461 285.97779566769555 735.7030652335477 318.42582706494034 733.9278950019494 350.8738584621851 730.5764322380185 384.4480805739382 727.2249694740874 418.0223026856913 721.9811380666429 454.4906993037842 716.7373066591982 490.9590959218771 706.883517828039 529.3384375710061 697.0297289968797 567.7177792201351 697.0248097903054 567.7168840069315 697.0198905837312 567.715988793728 697.014971377157 567.7150935805245 697.0100521705828 567.7141983673209 701.2713303029433 528.5310890495335 705.5326084353038 489.3479797317462 710.7394889421123 453.12235564576025 715.9463694489209 416.8967315597743 719.2681535937902 383.5752053734444 722.5899377386594 350.25367918711447 724.3427519284282 318.1507277726027 726.095566118197 286.0477763580909 725.9258296282208 259.6520704518132 725.7560931382446 233.25636454553543 724.3482419331197 212.3451421948609 722.9403907279948 191.43391984418636 721.0396606389263 172.76195299866222 719.138930549858 154.08998615313809 717.1600616564517 140.39742249389465 715.1811927630454 126.7048588346512 713.301192654249 116.83321713877528 711.4211925454526 106.96157544289936 711.373550032447 106.26267433572463 711.3259075194414 105.5637732285499 711.4469127016538 104.87378024848901 711.5679178838661 104.18378726842812 711.8505379344208 103.54280483990138 712.1331579849755 102.90182241137465 712.5609670132553 102.34710446324448 712.9887760415353 101.7923865151143 713.5369097667162 101.35617328058933 714.0850434918973 100.91996004606435 714.7216443561178 100.62760425883056 715.3582452203385 100.33524847159676 716.0463139514598 100.20374186374445 716.7343826825809 100.07223525589214 717.433928693621 100.10922099764849 718.1334747046614 100.14620673940486 718.8038403485909 100.34953521772125 719.4742059925204 100.55286369603765 720.0764295866172 100.91071745020096 720.6786531807139 101.26857120436429 721.1777334613935 101.76015175736889 721.6768137420731 102.25173231037348 722.0437441399733 102.84846897738191 722.4106745378735 103.44520564439033 722.6241290410283 104.1124160622785 722.8375835441831 104.77962648016667 722.837528995459 104.77934107039147 Z" fill="hsl(0, 0%, 89%)"></path></svg>