<?xml version="1.0" standalone="no"?>
<!DOCTYPE svg PUBLIC "-//W3C//DTD SVG 20010904//EN"
 "http://www.w3.org/TR/2001/REC-SVG-20010904/DTD/svg10.dtd">
<svg version="1.0" xmlns="http://www.w3.org/2000/svg"
 width="300.000000pt" height="300.000000pt" viewBox="0 0 300.000000 300.000000"
 preserveAspectRatio="xMidYMid meet">
<metadata>
Created by potrace 1.10, written by Peter Selinger 2001-2011
</metadata>
<g transform="translate(0.000000,300.000000) scale(0.100000,-0.100000)"
fill="#000000" stroke="none">
<path d="M1298 2434 c-151 -32 -323 -125 -435 -233 -79 -77 -133 -141 -133
-158 0 -7 -4 -13 -9 -13 -11 0 -66 -104 -97 -185 -39 -105 -54 -196 -54 -325
0 -206 47 -360 162 -531 38 -58 102 -125 305 -323 73 -71 110 -113 105 -122
-4 -7 -96 -103 -204 -213 -109 -110 -198 -206 -198 -212 0 -7 -7 -20 -15 -29
-8 -8 -21 -32 -30 -53 -26 -62 8 -47 56 25 26 39 250 272 589 613 577 580 593
599 625 720 78 300 -154 604 -460 605 -217 0 -416 -151 -470 -355 -30 -116
-14 -253 43 -359 17 -33 96 -122 220 -248 172 -174 191 -197 172 -203 -29 -9
-260 -240 -260 -260 0 -8 -4 -15 -8 -15 -15 0 -408 404 -441 453 -52 76 -109
206 -131 298 -28 116 -28 302 0 418 80 331 354 599 682 665 120 25 295 21 410
-8 328 -83 582 -349 653 -682 22 -103 19 -291 -5 -393 -22 -91 -79 -221 -130
-298 -18 -26 -249 -265 -514 -530 -430 -432 -477 -483 -451 -483 24 0 46 17
122 95 51 52 98 95 106 95 7 0 55 -43 106 -95 71 -72 100 -95 120 -95 22 0 10
15 -97 123 -111 112 -121 124 -103 133 35 16 251 235 257 261 6 23 20 12 201
-168 108 -108 219 -229 250 -271 53 -76 92 -104 77 -55 -21 67 -159 221 -402
450 -34 32 -62 62 -62 67 0 5 76 85 168 177 93 92 189 194 214 225 93 115 165
276 189 423 17 106 7 310 -20 403 -77 266 -261 483 -508 599 -78 36 -99 43
-208 69 -78 18 -299 17 -387 -2z m307 -490 c87 -22 217 -101 241 -145 84 -155
99 -207 91 -314 -6 -78 -34 -156 -79 -220 -39 -55 -348 -365 -363 -365 -7 0
-42 30 -76 67 -35 36 -98 101 -139 143 -115 117 -146 153 -171 201 -52 103
-63 231 -29 340 68 220 304 351 525 293z"/>
<path d="M2005 90 c-49 -50 -85 -90 -80 -90 6 0 51 40 100 90 49 50 85 90 80
90 -6 0 -50 -41 -100 -90z"/>
</g>
</svg>
