<svg version="1.1" id="Layer_1" xmlns="http://www.w3.org/2000/svg"
    xmlns:xlink="http://www.w3.org/1999/xlink" x="0px" y="0px"
    width="100%" viewBox="0 0 500 500" enable-background="new 0 0 500 500" xml:space="preserve">
     <g transform="rotate(90, 250, 250) translate(5, -1)">
<path fill="#000000" opacity="1.000000" stroke="none" 
	d="
M120.000000,501.000000 
	C80.343246,501.000000 40.686497,501.000000 1.022311,501.000000 
	C1.014874,334.384918 1.014874,167.769821 1.014874,1.077369 
	C167.573395,1.077369 334.146820,1.077369 500.860138,1.077369 
	C500.860138,167.666580 500.860138,334.333282 500.860138,501.000000 
	C461.581207,501.000000 422.257599,501.000000 382.330078,500.681274 
	C373.889282,486.284088 364.324921,473.572723 352.008240,462.658905 
	C350.958130,461.567963 350.019653,460.769257 348.970490,459.653687 
	C346.599426,457.211853 344.339020,455.086884 341.961884,452.655518 
	C340.255402,450.890381 338.665649,449.431641 336.962219,447.656555 
	C334.949524,445.869537 333.050537,444.398895 331.026947,442.626648 
	C329.970123,441.202332 329.037903,440.079620 328.013397,438.678894 
	C327.324097,437.917572 326.727081,437.434265 326.003693,436.647644 
	C324.284943,434.883850 322.692596,433.423370 320.969604,431.661621 
	C319.243408,429.899445 317.647858,428.438568 315.943817,426.676727 
	C314.587646,425.238159 313.339966,424.100555 311.974670,422.647522 
	C309.254974,419.879669 306.652924,417.427216 303.885986,414.690247 
	C302.438080,412.907043 301.155090,411.408356 300.068512,409.639252 
	C318.766266,390.887817 337.397461,372.534637 355.743408,353.900635 
	C401.649841,307.273438 413.152618,240.671326 385.151642,182.589600 
	C359.376251,129.124359 300.978546,91.105392 231.835754,99.896118 
	C191.932663,104.969353 159.420517,123.623215 134.399612,154.775513 
	C106.941742,188.961975 97.646996,228.379425 103.902145,271.478638 
	C107.757027,298.039551 118.590881,321.668945 135.973099,342.587769 
	C139.396744,346.370331 142.731323,349.834900 146.167542,353.577148 
	C148.166138,355.607452 150.063126,357.360107 152.006409,359.349731 
	C152.233505,359.892273 152.501389,360.048492 152.969284,360.358185 
	C154.345474,361.793304 155.608765,362.925598 156.986359,364.346191 
	C158.022110,365.439697 158.943558,366.244934 159.984329,367.356964 
	C161.698334,369.126678 163.293015,370.589569 164.996216,372.343201 
	C166.025726,373.439148 166.946732,374.244293 167.995361,375.352448 
	C169.712784,377.119843 171.302582,378.584290 173.003479,380.337708 
	C174.028000,381.438354 174.941406,382.250031 175.983276,383.355499 
	C177.361023,384.783844 178.610306,385.918427 179.989731,387.345551 
	C181.365234,388.779602 182.610611,389.921051 183.989182,391.372437 
	C186.731247,394.166321 189.340118,396.650360 192.080994,399.425415 
	C193.755020,401.166412 195.297058,402.616364 196.997101,404.353821 
	C198.738510,406.115631 200.321915,407.589935 201.949860,409.408813 
	C200.951614,411.011078 200.001801,412.361694 198.851837,413.512268 
	C184.976013,427.394653 171.132248,441.309998 157.155655,455.090515 
	C143.040665,469.007355 129.109406,483.044586 120.000000,501.000000 
z"/>
<path fill="#F9F9F9" opacity="1.000000" stroke="none" 
	d="
M135.884033,342.269775 
	C118.590881,321.668945 107.757027,298.039551 103.902145,271.478638 
	C97.646996,228.379425 106.941742,188.961975 134.399612,154.775513 
	C159.420517,123.623215 191.932663,104.969353 231.835754,99.896118 
	C300.978546,91.105392 359.376251,129.124359 385.151642,182.589600 
	C413.152618,240.671326 401.649841,307.273438 355.743408,353.900635 
	C337.397461,372.534637 318.766266,390.887817 299.745178,409.730042 
	C295.233215,414.461395 291.403137,418.994629 287.211121,423.163818 
	C280.793121,429.546722 274.051178,435.602814 267.586395,441.940063 
	C261.929504,447.485382 256.465179,453.227112 250.642548,459.074127 
	C237.569733,472.091858 224.757645,484.905151 211.998215,497.770660 
	C211.129715,498.646332 210.656860,499.914429 210.000000,501.000000 
	C180.312439,501.000000 150.624878,501.000000 120.468658,501.000000 
	C129.109406,483.044586 143.040665,469.007355 157.155655,455.090515 
	C171.132248,441.309998 184.976013,427.394653 198.851837,413.512268 
	C200.001801,412.361694 200.951614,411.011078 202.145493,409.110535 
	C218.555832,392.675079 234.815079,376.882446 251.340164,360.889587 
	C270.312134,341.967407 289.254303,323.474030 307.664062,304.464935 
	C330.104858,281.293518 336.838715,253.718140 327.114807,223.048004 
	C312.873352,178.129105 263.427979,155.297134 220.116882,173.853882 
	C190.084213,186.721451 173.196671,210.229111 170.842575,243.079010 
	C169.357407,263.803802 175.771667,282.436951 188.382355,298.779968 
	C186.625793,298.361572 185.254181,297.888489 184.761215,297.718445 
	C181.836945,300.214172 179.120499,302.336639 176.630188,304.697632 
	C171.059387,309.979218 165.835358,315.651703 160.026474,320.649323 
	C154.974899,324.995422 149.079300,328.358246 144.008896,332.685455 
	C140.864365,335.369080 138.563568,339.041321 135.884033,342.269775 
z"/>
<path fill="#020202" opacity="1.000000" stroke="none" 
	d="
M210.468658,501.000000 
	C210.656860,499.914429 211.129715,498.646332 211.998215,497.770660 
	C224.757645,484.905151 237.569733,472.091858 250.977600,459.172424 
	C253.146683,460.404480 254.707489,461.730347 256.293701,463.350586 
	C257.677368,465.012665 259.035553,466.380310 260.571075,467.973389 
	C261.472626,468.842957 262.196869,469.487152 263.051453,470.415894 
	C264.398041,471.798553 265.614258,472.896637 266.978607,474.296112 
	C269.034912,476.417847 270.943146,478.238190 272.992218,480.357758 
	C274.735321,482.149445 276.337585,483.641907 278.046814,485.406372 
	C278.751831,486.152435 279.349915,486.626495 280.071533,487.391113 
	C281.423584,488.799469 282.652069,489.917267 284.002991,491.337616 
	C285.402618,492.794342 286.679749,493.948486 288.072266,495.397583 
	C289.428589,496.806244 290.669525,497.920013 292.053131,499.401367 
	C292.130524,500.179291 292.065277,500.589661 292.000000,501.000000 
	C264.979095,501.000000 237.958206,501.000000 210.468658,501.000000 
z"/>
<path fill="#F8F8F8" opacity="1.000000" stroke="none" 
	d="
M352.119873,462.951172 
	C364.324921,473.572723 373.889282,486.284088 381.863098,500.681274 
	C359.645782,501.000000 337.291534,501.000000 314.506592,500.648590 
	C315.738525,498.268311 317.237915,496.073700 319.096252,494.243500 
	C323.610565,489.797638 328.384888,485.614868 332.876465,481.147156 
	C336.540039,477.503052 339.802490,473.451538 343.514893,469.862061 
	C346.148438,467.315613 349.235321,465.238037 352.119873,462.951172 
z"/>
<path fill="#E6E6E6" opacity="1.000000" stroke="none" 
	d="
M342.078613,452.961914 
	C344.339020,455.086884 346.599426,457.211853 348.618042,459.699524 
	C345.420166,462.372009 342.217773,464.429810 339.551910,467.036407 
	C329.581604,476.784851 319.760742,486.687073 309.959747,496.606628 
	C308.740204,497.840912 307.975494,499.524567 307.000000,501.000000 
	C304.629425,501.000000 302.258881,501.000000 299.481689,500.650452 
	C302.349915,496.403229 305.363190,492.243744 308.950867,488.659210 
	C318.126526,479.491547 327.644684,470.666382 336.805664,461.484589 
	C338.417603,459.868958 338.962372,457.188629 340.125275,454.727112 
	C340.859894,453.956757 341.469238,453.459320 342.078613,452.961914 
z"/>
<path fill="#F0F0F0" opacity="1.000000" stroke="none" 
	d="
M307.437500,501.000000 
	C307.975494,499.524567 308.740204,497.840912 309.959747,496.606628 
	C319.760742,486.687073 329.581604,476.784851 339.551910,467.036407 
	C342.217773,464.429810 345.420166,462.372009 348.728699,460.016418 
	C350.019653,460.769257 350.958130,461.567963 352.008240,462.658936 
	C349.235321,465.238037 346.148438,467.315613 343.514893,469.862061 
	C339.802490,473.451538 336.540039,477.503052 332.876465,481.147156 
	C328.384888,485.614868 323.610565,489.797638 319.096252,494.243500 
	C317.237915,496.073700 315.738525,498.268311 314.037933,500.648590 
	C311.958344,501.000000 309.916656,501.000000 307.437500,501.000000 
z"/>
<path fill="#DDDDDD" opacity="1.000000" stroke="none" 
	d="
M340.000000,455.000000 
	C338.962372,457.188629 338.417603,459.868958 336.805664,461.484589 
	C327.644684,470.666382 318.126526,479.491547 308.950867,488.659210 
	C305.363190,492.243744 302.349915,496.403229 299.037537,500.650452 
	C296.958344,501.000000 294.916656,501.000000 292.437500,501.000000 
	C292.065277,500.589661 292.130524,500.179291 292.362427,499.257629 
	C299.459503,492.187103 306.425934,485.665375 313.303528,479.051239 
	C316.256165,476.211731 319.032959,473.188721 321.874084,470.234100 
	C325.860626,466.088318 329.678802,461.762512 333.890350,457.860565 
	C335.461609,456.404816 337.936920,455.924896 340.000000,455.000000 
z"/>
<path fill="#FEFEFE" opacity="1.000000" stroke="none" 
	d="
M135.973099,342.587769 
	C138.563568,339.041321 140.864365,335.369080 144.008896,332.685455 
	C149.079300,328.358246 154.974899,324.995422 160.026474,320.649323 
	C165.835358,315.651703 171.059387,309.979218 176.630188,304.697632 
	C179.120499,302.336639 181.836945,300.214172 184.761215,297.718445 
	C185.254181,297.888489 186.625793,298.361572 188.606094,298.995728 
	C192.425598,303.101807 195.636383,307.046875 198.539322,310.994141 
	C197.820969,310.993500 197.410492,310.990662 196.785324,310.731934 
	C195.448395,310.844910 194.007812,310.889160 193.251419,311.631042 
	C180.968369,323.678162 168.806808,335.849396 156.492065,347.863708 
	C155.473663,348.857269 153.550079,348.923004 152.047073,349.419830 
	C151.924026,349.180328 151.800964,348.940857 151.677917,348.701355 
	C149.807251,350.234070 147.936584,351.766754 146.065918,353.299469 
	C142.731323,349.834900 139.396744,346.370331 135.973099,342.587769 
z"/>
<path fill="#A4A4A4" opacity="1.000000" stroke="none" 
	d="
M272.851379,480.058533 
	C270.943146,478.238190 269.034912,476.417847 267.335571,474.249634 
	C269.172668,471.945831 270.671661,469.862701 272.450592,468.055115 
	C282.173615,458.175690 291.826752,448.220337 301.797363,438.595032 
	C306.191864,434.352631 311.279388,430.828094 316.052307,426.977692 
	C317.647858,428.438568 319.243408,429.899445 320.622223,431.722778 
	C318.041779,434.782837 315.797791,437.597687 313.291290,440.155334 
	C306.650726,446.931274 299.934265,453.634155 293.177124,460.294159 
	C286.446716,466.927795 279.630157,473.473999 272.851379,480.058533 
z"/>
<path fill="#7C7C7C" opacity="1.000000" stroke="none" 
	d="
M251.074341,361.089783 
	C234.815079,376.882446 218.555832,392.675079 202.100952,408.765991 
	C200.321915,407.589935 198.738510,406.115631 197.354370,404.303040 
	C199.736450,401.777740 201.917618,399.589111 204.102356,397.404053 
	C214.336578,387.168579 224.582855,376.945099 234.800598,366.693207 
	C238.352676,363.129364 243.134399,360.231323 242.005798,353.709656 
	C242.034088,353.232513 242.051697,353.042084 242.371399,353.001099 
	C245.473770,355.796967 248.274063,358.443390 251.074341,361.089783 
z"/>
<path fill="#A4A4A4" opacity="1.000000" stroke="none" 
	d="
M183.855988,391.062561 
	C182.610611,389.921051 181.365234,388.779602 180.380524,387.331238 
	C182.366806,386.243317 184.489685,385.865906 185.756622,384.618896 
	C198.616791,371.961060 211.333740,359.157745 224.100174,346.404541 
	C226.408981,344.098114 227.989517,341.565002 227.324722,338.143555 
	C229.798843,340.725098 231.937866,343.281067 233.928223,346.152069 
	C228.884949,351.113281 223.964294,355.732452 219.101166,360.411377 
	C209.381149,369.763153 199.763016,379.222870 189.916901,388.439453 
	C188.403870,389.855774 185.901047,390.214630 183.855988,391.062561 
z"/>
<path fill="#7C7C7C" opacity="1.000000" stroke="none" 
	d="
M256.268280,463.056183 
	C254.707489,461.730347 253.146683,460.404480 251.250854,458.980347 
	C256.465179,453.227112 261.929504,447.485382 267.586395,441.940063 
	C274.051178,435.602814 280.793121,429.546722 287.211121,423.163818 
	C291.403137,418.994629 295.233215,414.461395 299.548767,410.000458 
	C301.155090,411.408356 302.438080,412.907043 303.576080,414.837585 
	C296.734863,422.205872 290.105011,429.207886 283.326141,436.062561 
	C274.367981,445.120850 265.293030,454.063721 256.268280,463.056183 
z"/>
<path fill="#888888" opacity="1.000000" stroke="none" 
	d="
M256.293701,463.350586 
	C265.293030,454.063721 274.367981,445.120850 283.326141,436.062561 
	C290.105011,429.207886 296.734863,422.205872 303.740967,415.122101 
	C306.652924,417.427216 309.254974,419.879669 311.637421,422.656616 
	C309.940674,423.319702 308.463562,423.658264 306.626282,424.037048 
	C303.339874,426.109070 300.098236,427.809784 297.549286,430.237701 
	C291.133698,436.348816 285.038788,442.796112 278.800018,449.093506 
	C272.876373,455.072723 266.933289,461.032745 260.832397,467.175629 
	C260.666016,467.350037 260.393768,467.747955 260.393768,467.747955 
	C259.035553,466.380310 257.677368,465.012665 256.293701,463.350586 
z"/>
<path fill="#CBCBCB" opacity="1.000000" stroke="none" 
	d="
M287.956909,495.102661 
	C286.679749,493.948486 285.402618,492.794342 284.364319,491.293549 
	C286.798706,488.401489 288.860565,485.724609 291.211945,483.332275 
	C304.486664,469.826508 317.830963,456.389008 331.151550,442.928284 
	C333.050537,444.398895 334.949524,445.869537 336.605347,447.700562 
	C335.250854,448.733032 333.951385,449.215759 333.056213,450.105347 
	C317.993225,465.074371 302.980682,480.094147 287.956909,495.102661 
z"/>
<path fill="#D5D5D5" opacity="1.000000" stroke="none" 
	d="
M288.072266,495.397583 
	C302.980682,480.094147 317.993225,465.074371 333.056213,450.105347 
	C333.951385,449.215759 335.250854,448.733032 336.719025,448.016937 
	C338.665649,449.431641 340.255402,450.890381 341.961884,452.655518 
	C341.469238,453.459320 340.859894,453.956757 340.125275,454.727112 
	C337.936920,455.924896 335.461609,456.404816 333.890350,457.860565 
	C329.678802,461.762512 325.860626,466.088318 321.874084,470.234100 
	C319.032959,473.188721 316.256165,476.211731 313.303528,479.051239 
	C306.425934,485.665375 299.459503,492.187103 292.219788,498.890015 
	C290.669525,497.920013 289.428589,496.806244 288.072266,495.397583 
z"/>
<path fill="#B9B9B9" opacity="1.000000" stroke="none" 
	d="
M175.854828,383.061707 
	C174.941406,382.250031 174.028000,381.438354 173.313843,380.191589 
	C179.230911,374.119507 184.969742,368.503540 190.661469,362.840271 
	C198.674118,354.867645 206.600937,346.807709 214.694626,338.918640 
	C216.044983,337.602417 218.098236,337.030518 219.744125,335.984711 
	C220.599472,335.441223 221.274384,334.613739 222.355011,333.978882 
	C223.484299,334.687469 224.289398,335.331665 224.815613,336.177429 
	C219.581284,341.974792 214.790436,347.727844 209.630280,353.128021 
	C202.610580,360.474213 195.507172,367.766022 188.042038,374.649963 
	C184.449173,377.963074 179.945862,380.288849 175.854828,383.061707 
z"/>
<path fill="#C1C1C1" opacity="1.000000" stroke="none" 
	d="
M331.026917,442.626648 
	C317.830963,456.389008 304.486664,469.826508 291.211945,483.332275 
	C288.860565,485.724609 286.798706,488.401489 284.241852,490.990997 
	C282.652069,489.917267 281.423584,488.799469 280.262512,487.109100 
	C282.235748,484.508972 284.117981,482.458588 286.051208,480.457489 
	C299.265808,466.779327 312.480865,453.101501 325.754547,439.480865 
	C326.223602,438.999573 327.308075,439.118011 328.105682,438.956909 
	C329.037903,440.079620 329.970123,441.202332 331.026917,442.626648 
z"/>
<path fill="#999999" opacity="1.000000" stroke="none" 
	d="
M183.989197,391.372437 
	C185.901047,390.214630 188.403870,389.855774 189.916901,388.439453 
	C199.763016,379.222870 209.381149,369.763153 219.101166,360.411377 
	C223.964294,355.732452 228.884949,351.113281 234.200317,346.263519 
	C235.076874,346.424042 235.532684,346.788116 235.983109,347.523926 
	C234.502975,350.666229 233.567505,353.962769 231.463654,356.119720 
	C220.077316,367.793427 208.313812,379.098907 196.904358,390.750641 
	C194.760757,392.939758 193.632629,396.123199 191.992950,398.913025 
	C191.950012,398.978241 191.948990,399.134399 191.949005,399.134399 
	C189.340118,396.650360 186.731247,394.166321 183.989197,391.372437 
z"/>
<path fill="#D5D5D5" opacity="1.000000" stroke="none" 
	d="
M164.887695,372.052460 
	C163.293015,370.589569 161.698334,369.126678 160.395844,367.343750 
	C162.799820,366.044434 165.266739,365.473297 166.953506,364.005585 
	C171.169174,360.337311 175.068848,356.300110 179.022812,352.338623 
	C182.389633,348.965363 185.654251,345.490204 188.966248,342.062164 
	C192.970200,337.917938 196.844742,333.636841 201.025314,329.679047 
	C204.088669,326.778961 207.555023,324.304596 211.133636,321.812256 
	C212.553253,323.158234 213.681015,324.332458 214.354919,325.592346 
	C211.669785,327.743408 209.374969,329.744843 207.219131,331.886261 
	C200.714966,338.346863 194.408539,345.013611 187.755356,351.315277 
	C180.286316,358.389740 172.522995,365.153534 164.887695,372.052460 
z"/>
<path fill="#DDDDDD" opacity="1.000000" stroke="none" 
	d="
M210.841766,321.640503 
	C207.555023,324.304596 204.088669,326.778961 201.025314,329.679047 
	C196.844742,333.636841 192.970200,337.917938 188.966248,342.062164 
	C185.654251,345.490204 182.389633,348.965363 179.022812,352.338623 
	C175.068848,356.300110 171.169174,360.337311 166.953506,364.005585 
	C165.266739,365.473297 162.799820,366.044434 160.276520,367.036926 
	C158.943558,366.244934 158.022110,365.439697 157.297562,364.197418 
	C163.747467,358.226166 170.104034,352.803436 176.220352,347.122070 
	C180.995514,342.686523 185.509766,337.966461 190.070007,333.304413 
	C193.840607,329.449646 197.765884,325.700012 201.118759,321.501465 
	C202.910049,319.258392 204.607925,318.433533 207.528564,319.135071 
	C208.836075,320.051697 209.838928,320.846100 210.841766,321.640503 
z"/>
<path fill="#AEAEAE" opacity="1.000000" stroke="none" 
	d="
M175.983276,383.355499 
	C179.945862,380.288849 184.449173,377.963074 188.042038,374.649963 
	C195.507172,367.766022 202.610580,360.474213 209.630280,353.128021 
	C214.790436,347.727844 219.581284,341.974792 225.102676,336.283905 
	C226.108978,336.831848 226.549316,337.474915 226.989655,338.117981 
	C227.989517,341.565002 226.408981,344.098114 224.100174,346.404541 
	C211.333740,359.157745 198.616791,371.961060 185.756622,384.618896 
	C184.489685,385.865906 182.366806,386.243317 180.250397,387.038635 
	C178.610306,385.918427 177.361023,384.783844 175.983276,383.355499 
z"/>
<path fill="#C1C1C1" opacity="1.000000" stroke="none" 
	d="
M222.030807,333.914551 
	C221.274384,334.613739 220.599472,335.441223 219.744125,335.984711 
	C218.098236,337.030518 216.044983,337.602417 214.694626,338.918640 
	C206.600937,346.807709 198.674118,354.867645 190.661469,362.840271 
	C184.969742,368.503540 179.230911,374.119507 173.202744,379.902649 
	C171.302582,378.584290 169.712784,377.119843 168.393188,375.338074 
	C170.436356,374.311676 172.664062,374.061005 173.912186,372.822876 
	C186.911728,359.926971 199.782349,346.900299 212.605789,333.828552 
	C214.319138,332.082031 215.572739,329.884491 217.354019,328.022400 
	C219.122787,330.070831 220.576797,331.992676 222.030807,333.914551 
z"/>
<path fill="#CBCBCB" opacity="1.000000" stroke="none" 
	d="
M217.039276,327.895813 
	C215.572739,329.884491 214.319138,332.082031 212.605789,333.828552 
	C199.782349,346.900299 186.911728,359.926971 173.912186,372.822876 
	C172.664062,374.061005 170.436356,374.311676 168.265564,375.035095 
	C166.946732,374.244293 166.025726,373.439148 164.996216,372.343201 
	C172.522995,365.153534 180.286316,358.389740 187.755356,351.315277 
	C194.408539,345.013611 200.714966,338.346863 207.219131,331.886261 
	C209.374969,329.744843 211.669785,327.743408 214.543335,325.721130 
	C215.803482,326.474792 216.421371,327.185303 217.039276,327.895813 
z"/>
<path fill="#AEAEAE" opacity="1.000000" stroke="none" 
	d="
M272.992218,480.357758 
	C279.630157,473.473999 286.446716,466.927795 293.177124,460.294159 
	C299.934265,453.634155 306.650726,446.931274 313.291290,440.155334 
	C315.797791,437.597687 318.041779,434.782837 320.752869,432.024078 
	C322.692596,433.423370 324.284943,434.883850 325.625336,436.664001 
	C324.220459,437.539185 322.814575,437.838379 321.953033,438.688934 
	C310.960938,449.541504 299.928131,460.357971 289.173309,471.443298 
	C285.076935,475.665619 281.664185,480.551147 277.939819,485.134399 
	C276.337585,483.641907 274.735321,482.149445 272.992218,480.357758 
z"/>
<path fill="#888888" opacity="1.000000" stroke="none" 
	d="
M241.995117,353.996338 
	C243.134399,360.231323 238.352676,363.129364 234.800598,366.693207 
	C224.582855,376.945099 214.336578,387.168579 204.102356,397.404053 
	C201.917618,399.589111 199.736450,401.777740 197.196365,404.015503 
	C195.297058,402.616364 193.755020,401.166412 192.080978,399.425415 
	C191.948990,399.134399 191.950012,398.978241 192.369598,398.963257 
	C194.265732,398.390564 196.116150,398.220093 197.159012,397.213196 
	C204.749359,389.885223 212.243454,382.453979 219.636368,374.926117 
	C226.100449,368.343994 232.356689,361.557831 238.814468,354.969391 
	C239.496094,354.273956 240.917130,354.303284 241.995117,353.996338 
z"/>
<path fill="#E6E6E6" opacity="1.000000" stroke="none" 
	d="
M207.223877,319.012878 
	C204.607925,318.433533 202.910049,319.258392 201.118759,321.501465 
	C197.765884,325.700012 193.840607,329.449646 190.070007,333.304413 
	C185.509766,337.966461 180.995514,342.686523 176.220352,347.122070 
	C170.104034,352.803436 163.747467,358.226166 157.183243,363.909119 
	C155.608765,362.925598 154.345474,361.793304 153.377777,360.342804 
	C159.801422,360.087708 161.370300,354.097504 165.033035,351.035797 
	C172.273544,344.983398 178.630661,337.866852 185.286545,331.124664 
	C190.927521,325.410492 196.474915,319.603882 202.413635,313.896759 
	C204.250336,315.641205 205.737106,317.327026 207.223877,319.012878 
z"/>
<path fill="#999999" opacity="1.000000" stroke="none" 
	d="
M306.986420,423.996796 
	C308.463562,423.658264 309.940674,423.319702 311.755066,422.972046 
	C313.339966,424.100555 314.587646,425.238159 315.943817,426.676727 
	C311.279388,430.828094 306.191864,434.352631 301.797363,438.595032 
	C291.826752,448.220337 282.173615,458.175690 272.450592,468.055115 
	C270.671661,469.862701 269.172668,471.945831 267.187469,473.948242 
	C265.614258,472.896637 264.398041,471.798553 263.173584,470.142883 
	C263.445526,469.058014 263.725677,468.530701 264.373413,467.997009 
	C265.518768,467.760376 266.524994,467.763672 267.037567,467.262268 
	C270.672028,463.707428 274.215424,460.059021 277.768158,456.421173 
	C281.423981,452.677734 284.991577,448.845612 288.715790,445.171936 
	C294.773010,439.196716 300.972900,433.365112 306.962341,427.323944 
	C307.520844,426.760651 307.003967,425.131195 306.986420,423.996796 
z"/>
<path fill="#F8F8F8" opacity="1.000000" stroke="none" 
	d="
M146.167542,353.577148 
	C147.936584,351.766754 149.807251,350.234070 151.677917,348.701355 
	C151.800964,348.940857 151.924026,349.180328 152.047073,349.419830 
	C153.550079,348.923004 155.473663,348.857269 156.492065,347.863708 
	C168.806808,335.849396 180.968369,323.678162 193.251419,311.631042 
	C194.007812,310.889160 195.448395,310.844910 196.748810,311.085266 
	C195.531693,313.714447 194.393570,315.986969 192.698654,317.712585 
	C183.085922,327.499634 173.312576,337.128662 163.652557,346.869659 
	C159.679642,350.875885 155.853180,355.027344 151.960114,359.112762 
	C150.063126,357.360107 148.166138,355.607452 146.167542,353.577148 
z"/>
<path fill="#F0F0F0" opacity="1.000000" stroke="none" 
	d="
M152.006409,359.349731 
	C155.853180,355.027344 159.679642,350.875885 163.652557,346.869659 
	C173.312576,337.128662 183.085922,327.499634 192.698654,317.712585 
	C194.393570,315.986969 195.531693,313.714447 196.963470,311.341156 
	C197.410492,310.990662 197.820969,310.993500 198.674942,311.293274 
	C200.100189,312.339508 201.081955,313.088837 202.063721,313.838196 
	C196.474915,319.603882 190.927521,325.410492 185.286545,331.124664 
	C178.630661,337.866852 172.273544,344.983398 165.033035,351.035797 
	C161.370300,354.097504 159.801422,360.087708 153.264862,360.040009 
	C152.501389,360.048492 152.233505,359.892273 152.006409,359.349731 
z"/>
<path fill="#B9B9B9" opacity="1.000000" stroke="none" 
	d="
M278.046783,485.406372 
	C281.664185,480.551147 285.076935,475.665619 289.173309,471.443298 
	C299.928131,460.357971 310.960938,449.541504 321.953033,438.688934 
	C322.814575,437.838379 324.220459,437.539185 325.751709,436.967346 
	C326.727081,437.434265 327.324097,437.917572 328.013397,438.678894 
	C327.308075,439.118011 326.223602,438.999573 325.754547,439.480865 
	C312.480865,453.101501 299.265808,466.779327 286.051208,480.457489 
	C284.117981,482.458588 282.235748,484.508972 280.138977,486.818542 
	C279.349915,486.626495 278.751831,486.152435 278.046783,485.406372 
z"/>
<path fill="#010101" opacity="1.000000" stroke="none" 
	d="
M202.413635,313.896790 
	C201.081955,313.088837 200.100189,312.339508 198.982803,311.291016 
	C195.636383,307.046875 192.425598,303.101807 188.991058,298.941010 
	C175.771667,282.436951 169.357407,263.803802 170.842575,243.079010 
	C173.196671,210.229111 190.084213,186.721451 220.116882,173.853882 
	C263.427979,155.297134 312.873352,178.129105 327.114807,223.048004 
	C336.838715,253.718140 330.104858,281.293518 307.664062,304.464935 
	C289.254303,323.474030 270.312134,341.967407 251.340179,360.889618 
	C248.274063,358.443390 245.473770,355.796967 242.222961,352.712372 
	C239.844467,350.566864 237.916489,348.859528 235.988495,347.152191 
	C235.532684,346.788116 235.076874,346.424042 234.348969,345.948486 
	C231.937866,343.281067 229.798843,340.725098 227.324738,338.143555 
	C226.549316,337.474915 226.108978,336.831848 225.381561,336.082336 
	C224.289398,335.331665 223.484299,334.687469 222.355011,333.978882 
	C220.576797,331.992676 219.122787,330.070831 217.354004,328.022400 
	C216.421371,327.185303 215.803482,326.474792 214.997192,325.635498 
	C213.681015,324.332458 212.553253,323.158234 211.133636,321.812256 
	C209.838928,320.846100 208.836075,320.051697 207.528564,319.135071 
	C205.737106,317.327026 204.250336,315.641205 202.413635,313.896790 
z"/>
<path fill="#888888" opacity="1.000000" stroke="none" 
	d="
M264.005829,468.003418 
	C263.725677,468.530701 263.445526,469.058014 263.043274,469.858337 
	C262.196869,469.487152 261.472626,468.842957 260.571075,467.973389 
	C260.393768,467.747955 260.666016,467.350037 261.170471,467.178223 
	C262.451904,467.338745 263.228851,467.671082 264.005829,468.003418 
z"/>
<path fill="#919191" opacity="1.000000" stroke="none" 
	d="
M235.983124,347.523926 
	C237.916489,348.859528 239.844467,350.566864 241.920883,352.562927 
	C242.051697,353.042084 242.034088,353.232513 242.005798,353.709656 
	C240.917130,354.303284 239.496094,354.273956 238.814468,354.969391 
	C232.356689,361.557831 226.100449,368.343994 219.636368,374.926117 
	C212.243454,382.453979 204.749359,389.885223 197.159012,397.213196 
	C196.116150,398.220093 194.265732,398.390564 192.412537,398.898010 
	C193.632629,396.123199 194.760757,392.939758 196.904358,390.750641 
	C208.313812,379.098907 220.077316,367.793427 231.463654,356.119720 
	C233.567505,353.962769 234.502975,350.666229 235.983124,347.523926 
z"/>
<path fill="#919191" opacity="1.000000" stroke="none" 
	d="
M264.373413,467.997040 
	C263.228851,467.671082 262.451904,467.338745 261.336853,467.003845 
	C266.933289,461.032745 272.876373,455.072723 278.800018,449.093506 
	C285.038788,442.796112 291.133698,436.348816 297.549286,430.237701 
	C300.098236,427.809784 303.339874,426.109070 306.626282,424.037048 
	C307.003967,425.131195 307.520844,426.760651 306.962341,427.323944 
	C300.972900,433.365112 294.773010,439.196716 288.715790,445.171936 
	C284.991577,448.845612 281.423981,452.677734 277.768158,456.421173 
	C274.215424,460.059021 270.672028,463.707428 267.037567,467.262268 
	C266.524994,467.763672 265.518768,467.760376 264.373413,467.997040 
z"/>
</g>
</svg>