<svg xmlns="http://www.w3.org/2000/svg" version="1.1" xmlns:xlink="http://www.w3.org/1999/xlink" xmlns:svgjs="http://svgjs.dev/svgjs" viewBox="0 0 800 800"><defs><linearGradient x1="50%" y1="0%" x2="50%" y2="100%" id="ccchaos-grad"><stop stop-color="hsl(230, 55%, 50%)" stop-opacity="1" offset="0%"></stop><stop stop-color="hsl(230, 55%, 70%)" stop-opacity="1" offset="100%"></stop></linearGradient></defs><g stroke-width="3.5" stroke="url(#ccchaos-grad)" fill="none" stroke-linecap="round"><path d="M133.14 114.67Q150.89 116.7 168.65 119.47 186.4 122.79 204.16 126.42 221.91 130.09 239.67 133.53 257.42 136.5 275.18 138.77 292.93 140.19 310.69 140.65 328.45 140.1 346.2 138.61 363.96 136.26 381.71 133.25 399.47 129.77 417.22 126.09 434.98 122.48 452.73 119.2 470.49 116.49 488.24 114.54 506 113.5 523.75 113.44 541.51 114.37 559.27 116.23 577.02 118.86 594.78 122.09 612.53 125.68 630.29 129.36 648.04 132.87 665.8 135.96 683.55 138.38 701.31 139.98 699.11 157.51 687.5 175.04 670.68 192.57 654.69 210.1 645.29 227.63 645.86 245.16 656.2 262.69 672.59 280.22 689.12 297.75 699.85 315.27 700.91 332.8 691.92 350.33 676.12 367.86 659.19 385.39 647.23 402.92 644.55 420.45 652.11 437.98 667.18 455.51 684.35 473.04 697.43 490.57 701.71 508.1 695.66 525.63 681.45 543.15 664.19 560.68 650.1 578.21 644.26 595.74 648.76 613.27 661.98 630.8 679.17 648.33 694.14 665.86 701.49 683.39 698.59 700.92 680.9 697.48 663.21 692.26 645.52 685.64 627.83 678.09 610.14 670.17 592.46 662.46 574.77 655.51 557.08 649.84 539.39 645.86 521.7 643.86 504.01 643.98 486.32 646.21 468.63 650.4 450.95 656.24 433.26 663.29 415.57 671.06 397.88 678.96 380.19 686.43 362.5 692.92 344.81 697.96 327.12 701.18 309.43 702.34 291.75 701.36 274.06 698.32 256.37 693.43 238.68 687.05 220.99 679.64 203.3 671.75 185.61 663.95 167.92 656.81 150.24 650.85 132.55 646.51 133.18 629.89 131.58 613.27 128.33 596.65 124.61 580.03 121.74 563.41 120.76 546.79 122.03 530.17 125.08 513.55 128.83 496.93 131.91 480.31 133.22 463.69 132.3 447.07 129.46 430.45 125.73 413.83 122.46 397.21 120.82 380.59 121.41 363.97 124 347.35 127.67 330.73 131.1 314.11 133.05 297.49 132.82 280.87 130.49 264.25 126.91 247.63 123.35 231.01 121.11 214.39 120.98 197.77 123.02 181.15 126.49 164.53 130.14 147.91 132.66 131.29 133.14 114.67" stroke-dasharray="6 4" transform="rotate(0, 400, 400)" opacity="0.05"></path><path d="M144.04 126.07Q161.11 128.52 178.18 131.57 195.25 135.03 212.32 138.65 229.38 142.19 246.45 145.41 263.52 148.1 280.59 150.08 297.66 151.21 314.73 151.41 331.8 150.67 348.87 149.05 365.94 146.65 383.01 143.62 400.08 140.19 417.15 136.57 434.22 133.02 451.29 129.77 468.36 127.04 485.43 125.01 502.5 123.83 519.57 123.57 536.64 124.24 553.71 125.81 570.78 128.17 587.85 131.16 604.92 134.57 621.99 138.18 639.06 141.75 656.13 145.03 673.2 147.8 690.27 149.87 682.55 166.7 668.14 183.52 651.85 200.35 639.11 217.17 634.17 234 638.68 250.82 651.14 267.65 667.38 284.47 682 301.3 690.11 318.12 689 334.94 679.06 351.77 663.58 368.59 647.75 385.42 636.83 402.24 634.48 419.07 641.47 435.89 655.48 452.72 671.82 469.54 685.06 486.37 690.77 503.19 687.04 520.02 675.13 536.84 659 553.67 644.04 570.49 635.23 587.32 635.52 604.14 644.81 620.96 660 637.79 676.02 654.61 680.57 677.69 656.53 678.18 639.45 671.35 622.37 663.93 605.29 656.41 588.21 649.3 571.13 643.09 554.05 638.18 536.97 634.91 519.89 633.5 502.81 634.04 485.73 636.51 468.65 640.73 451.57 646.41 434.49 653.18 417.41 660.58 400.33 668.11 383.25 675.26 366.17 681.54 349.09 686.55 332.01 689.93 314.93 691.46 297.85 691.04 280.77 688.69 263.69 684.58 246.61 678.98 229.53 672.26 212.45 664.89 195.37 657.36 178.29 650.17 161.21 643.81 144.13 638.72 143.39 622.7 140.68 606.68 136.91 590.66 133.33 574.64 131.14 558.62 131.07 542.6 133.15 526.58 136.67 510.55 140.47 494.53 143.28 478.51 144.15 462.49 142.81 446.47 139.69 430.45 135.84 414.43 132.54 398.41 130.9 382.39 131.45 366.37 134.02 350.35 137.75 334.33 141.4 318.31 143.74 302.29 144 286.27 142.09 270.25 138.65 254.23 134.82 238.21 131.89 222.19 130.82 206.17 131.99 190.15 134.99 174.13 138.82 158.11 142.22 142.09 144.04 126.07" stroke-dasharray="5 2" transform="rotate(4.04, 400, 400)" opacity="0.09"></path><path d="M153.96 137.85Q170.26 140.64 186.56 143.89 202.85 147.39 219.15 150.93 235.44 154.29 251.74 157.26 268.03 159.65 284.33 161.32 300.63 162.16 316.92 162.12 333.22 161.2 349.51 159.46 365.81 157 382.11 153.99 398.4 150.6 414.7 147.05 430.99 143.56 447.29 140.35 463.58 137.61 479.88 135.52 496.18 134.2 512.47 133.74 528.77 134.17 545.06 135.45 561.36 137.52 577.65 140.24 593.95 143.44 610.25 146.92 626.54 150.47 642.84 153.87 659.13 156.9 675.43 159.37 663.75 175.49 648.45 191.6 634.24 207.71 625.5 223.82 624.93 239.93 632.7 256.04 646.41 272.15 661.85 288.27 674.25 304.38 679.79 320.49 676.77 336.6 666.11 352.71 651.11 368.82 636.37 384.94 626.46 401.05 624.41 417.16 630.86 433.27 643.82 449.38 659.31 465.49 672.54 481.6 679.44 497.72 677.88 513.83 668.35 529.94 653.77 546.05 638.65 562.16 627.64 578.27 624.14 594.38 629.22 610.5 641.31 626.61 656.7 642.72 666.55 664.39 646.08 663.83 629.71 656.98 613.33 649.82 596.96 642.8 580.58 636.35 564.21 630.87 547.83 626.7 531.46 624.11 515.08 623.25 498.71 624.18 482.33 626.83 465.96 631.06 449.58 636.58 433.21 643.06 416.83 650.1 400.46 657.25 384.08 664.08 367.71 670.16 351.33 675.11 334.96 678.62 318.58 680.47 302.21 680.56 285.83 678.86 269.46 675.5 253.08 670.68 236.71 664.69 220.33 657.92 203.96 650.78 187.58 643.71 171.21 637.16 154.83 631.53 152.74 616.1 149.19 600.67 145.27 585.24 142.19 569.82 140.9 554.39 141.79 538.96 144.6 523.53 148.45 508.11 152.16 492.68 154.59 477.25 154.98 461.82 153.23 446.4 149.86 430.97 145.91 415.54 142.61 400.11 140.97 384.69 141.49 369.26 144.02 353.83 147.77 338.4 151.59 322.98 154.3 307.55 155.07 292.12 153.66 276.69 150.5 261.27 146.57 245.84 143.08 230.41 141.1 214.98 141.25 199.56 143.47 184.13 147.09 168.7 150.99 153.27 153.96 137.85" stroke-dasharray="6 2" transform="rotate(8.08, 400, 400)" opacity="0.13"></path><path d="M162.89 149.97Q178.35 153.01 193.8 156.37 209.26 159.85 224.72 163.25 240.17 166.38 255.63 169.06 271.09 171.13 286.54 172.49 302 173.04 317.46 172.76 332.91 171.67 348.37 169.83 363.83 167.34 379.28 164.34 394.74 161.01 410.2 157.53 425.66 154.12 441.11 150.95 456.57 148.21 472.03 146.06 487.48 144.62 502.94 143.97 518.4 144.15 533.85 145.16 549.31 146.92 564.77 149.34 580.22 152.29 595.68 155.59 611.14 159.06 626.59 162.5 642.05 165.7 657.51 168.5 643.78 183.89 629.41 199.28 618.47 214.68 614.05 230.07 617.42 245.46 627.62 260.85 641.75 276.24 655.81 291.64 665.81 307.03 668.91 322.42 664.24 337.81 653.12 353.2 638.69 368.6 625.07 383.99 616.1 399.38 614.34 414.77 620.27 430.16 632.23 445.56 646.81 460.95 659.89 476.34 667.75 491.73 668.16 507.12 661.01 522.52 648.32 537.91 633.7 553.3 621.29 568.69 614.61 584.08 615.55 599.48 623.85 614.87 637.16 630.26 649.72 650.62 632.16 649.32 616.57 642.6 600.98 635.83 585.39 629.38 569.8 623.62 554.21 618.88 538.62 615.43 523.04 613.47 507.45 613.12 491.86 614.38 476.27 617.19 460.68 621.4 445.09 626.75 429.5 632.94 413.91 639.62 398.32 646.41 382.74 652.91 367.15 658.77 351.56 663.64 335.97 667.24 320.38 669.38 304.79 669.92 289.2 668.83 273.61 666.19 258.02 662.13 242.44 656.9 226.85 650.78 211.26 644.14 195.67 637.34 180.08 630.78 164.49 624.84 161.29 610 157.3 595.16 153.65 580.32 151.37 565.48 151.11 550.64 152.95 535.8 156.36 520.96 160.37 506.12 163.85 491.28 165.81 476.44 165.7 461.6 163.54 446.76 159.96 431.92 155.95 417.08 152.67 402.24 151.04 387.4 151.52 372.56 153.99 357.72 157.73 342.88 161.68 328.04 164.74 313.2 166.02 298.37 165.17 283.53 162.43 268.69 158.57 253.85 154.69 239.01 151.89 224.17 150.96 209.33 152.17 194.49 155.18 179.65 159.12 164.81 162.89 149.97" stroke-dasharray="5 7" transform="rotate(12.12, 400, 400)" opacity="0.16"></path><path d="M170.95 162.41Q185.53 165.61 200.11 168.98 214.7 172.36 229.28 175.56 243.86 178.42 258.45 180.78 273.03 182.53 287.61 183.57 302.2 183.85 316.78 183.35 331.36 182.1 345.95 180.16 360.53 177.65 375.11 174.68 389.7 171.41 404.28 168.01 418.87 164.67 433.45 161.56 448.03 158.83 462.62 156.63 477.2 155.08 491.78 154.26 506.37 154.21 520.95 154.93 535.53 156.39 550.12 158.5 564.7 161.17 579.28 164.24 593.87 167.56 608.45 170.96 623.03 174.26 637.62 177.28 623.83 191.94 611.91 206.61 604.96 221.28 604.77 235.95 611.4 250.62 623.13 265.29 636.9 279.96 649.14 294.63 656.66 309.29 657.5 323.96 651.46 338.63 640.09 353.3 626.36 367.97 613.83 382.64 605.77 397.31 604.26 411.98 609.71 426.65 620.69 441.31 634.35 455.98 647.14 470.65 655.73 485.32 657.89 499.99 653.05 514.66 642.48 529.33 628.92 544 615.9 558.66 606.81 573.33 604 588 608.22 602.67 618.35 617.34 615.89 632.39 586.01 621.99 571.27 616.17 556.52 611.13 541.78 607.12 527.03 604.36 512.28 602.99 497.54 603.09 482.79 604.65 468.04 607.58 453.3 611.74 438.55 616.91 423.81 622.81 409.06 629.14 394.31 635.57 379.57 641.75 364.82 647.38 350.08 652.15 335.33 655.81 320.58 658.18 305.84 659.12 291.09 658.59 276.35 656.62 261.6 653.31 246.85 648.84 232.11 643.43 217.36 637.37 202.62 630.97 187.87 624.58 173.12 618.53 169.23 604.27 165.27 590.02 162.28 575.76 161.03 561.51 161.86 547.26 164.54 533 168.38 518.75 172.38 504.5 175.5 490.24 176.93 475.99 176.29 461.74 173.76 447.48 169.99 433.23 165.96 418.98 162.72 404.72 161.11 390.47 161.55 376.21 163.93 361.96 167.63 347.71 171.68 333.45 175.03 319.2 176.81 304.95 176.56 290.69 174.35 276.44 170.74 262.19 166.68 247.93 163.22 233.68 161.26 219.43 161.32 205.17 163.37 190.92 166.88 176.66 170.95 162.41" stroke-dasharray="2 1" transform="rotate(16.16, 400, 400)" opacity="0.20"></path><path d="M178.43 175.13Q192.14 178.38 205.84 181.69 219.55 184.89 233.26 187.84 246.97 190.38 260.68 192.41 274.39 193.83 288.1 194.56 301.81 194.57 315.52 193.87 329.22 192.47 342.93 190.46 356.64 187.93 370.35 185 384.06 181.8 397.77 178.49 411.48 175.24 425.19 172.18 438.9 169.47 452.61 167.24 466.31 165.6 480.02 164.61 493.73 164.34 507.44 164.79 521.15 165.94 534.86 167.73 548.57 170.09 562.28 172.89 575.99 176.01 589.69 179.3 603.4 182.59 617.11 185.74 605.05 199.68 596.65 213.63 593.91 227.57 597.49 241.52 606.52 255.46 618.88 269.4 631.61 283.35 641.71 297.29 646.77 311.24 645.59 325.18 638.46 339.13 627.06 353.07 614.1 367.02 602.66 380.96 595.45 394.9 594.19 408.85 599.17 422.79 609.22 436.74 621.94 450.68 634.32 464.63 643.41 478.57 647.07 492.52 644.42 506.46 636.08 520.4 624.05 534.35 611.18 548.29 600.51 562.24 594.59 576.18 594.82 590.13 601.14 604.07 597.47 618.1 569.47 608.37 555.6 603.22 541.72 598.9 527.84 595.6 513.97 593.49 500.09 592.67 486.21 593.17 472.33 594.97 458.46 598 444.58 602.09 430.7 607.06 416.83 612.67 402.95 618.66 389.07 624.73 375.19 630.6 361.32 635.99 347.44 640.64 333.56 644.33 319.69 646.88 305.81 648.18 291.93 648.16 278.05 646.81 264.18 644.22 250.3 640.49 236.42 635.81 222.54 630.4 208.67 624.52 194.79 618.45 180.91 612.47 176.83 598.8 173.38 585.14 171.38 571.47 171.31 557.8 173.18 544.14 176.55 530.47 180.62 516.8 184.42 503.13 187.05 489.47 187.89 475.8 186.74 462.13 183.86 448.47 179.95 434.8 175.93 421.13 172.76 407.46 171.18 393.8 171.58 380.13 173.86 366.46 177.47 352.8 181.57 339.13 185.17 325.46 187.43 311.8 187.8 298.13 186.2 284.46 183.01 270.79 178.98 257.13 175.08 243.46 172.22 229.79 171.1 216.13 171.96 202.46 174.61 188.79 178.43 175.13" stroke-dasharray="5 6" transform="rotate(20.200000000000003, 400, 400)" opacity="0.24"></path><path d="M185.74 188.06Q198.6 191.27 211.47 194.43 224.33 197.4 237.2 200.05 250.06 202.26 262.92 203.94 275.79 205.02 288.65 205.45 301.52 205.21 314.38 204.32 327.25 202.8 340.11 200.73 352.97 198.2 365.84 195.31 378.7 192.19 391.57 188.97 404.43 185.81 417.29 182.82 430.16 180.14 443.02 177.89 455.89 176.16 468.75 175.03 481.62 174.55 494.48 174.73 507.34 175.58 520.21 177.05 533.07 179.08 545.94 181.58 558.8 184.44 571.67 187.55 584.53 190.76 597.39 193.94 588.4 207.16 584.06 220.38 585.31 233.6 591.89 246.82 602.38 260.04 614.51 273.26 625.66 286.48 633.44 299.71 636.16 312.93 633.23 326.15 625.29 339.37 614.05 352.59 601.94 365.81 591.56 379.03 585.16 392.25 584.12 405.48 588.66 418.7 597.8 431.92 609.58 445.14 621.44 458.36 630.83 471.58 635.73 484.8 635.08 498.02 629.01 511.25 618.85 524.47 606.77 537.69 595.39 550.91 587.16 564.13 583.85 577.35 586.19 590.57 579.13 603.84 552.6 595.01 539.59 590.55 526.57 586.94 513.56 584.32 500.54 582.82 487.53 582.49 474.51 583.35 461.5 585.36 448.48 588.44 435.47 592.44 422.45 597.21 409.44 602.53 396.43 608.18 383.41 613.9 370.4 619.45 357.38 624.6 344.37 629.11 331.35 632.8 318.34 635.5 305.32 637.1 292.31 637.52 279.29 636.76 266.28 634.83 253.27 631.84 240.25 627.89 227.24 623.18 214.22 617.89 201.21 612.27 188.19 606.54 184.48 593.46 181.95 580.39 181.16 567.31 182.28 554.23 185.06 541.15 188.9 528.08 192.98 515 196.42 501.92 198.47 488.84 198.69 475.77 197.03 462.69 193.86 449.61 189.85 436.53 185.88 423.45 182.79 410.38 181.25 397.3 181.61 384.22 183.77 371.14 187.27 358.07 191.37 344.99 195.16 331.91 197.84 318.83 198.83 305.76 197.91 292.68 195.29 279.6 191.52 266.52 187.42 253.44 183.88 240.37 181.66 227.29 181.23 214.21 182.7 201.13 185.74 188.06" stroke-dasharray="5 2" transform="rotate(24.24, 400, 400)" opacity="0.28"></path><path d="M193.36 201.14Q205.44 204.22 217.51 207.16 229.58 209.84 241.66 212.16 253.73 214.01 265.8 215.34 277.88 216.1 289.95 216.24 302.02 215.76 314.1 214.69 326.17 213.07 338.24 210.96 350.32 208.43 362.39 205.6 374.46 202.57 386.53 199.45 398.61 196.38 410.68 193.47 422.75 190.83 434.83 188.57 446.9 186.78 458.97 185.52 471.05 184.84 483.12 184.78 495.19 185.33 507.27 186.47 519.34 188.16 531.41 190.33 543.49 192.9 555.56 195.77 567.63 198.81 579.7 201.93 574.55 214.43 574.27 226.93 578.9 239.43 587.55 251.93 598.53 264.44 609.7 276.94 618.88 289.44 624.28 301.94 624.84 314.44 620.46 326.94 611.99 339.44 601.09 351.95 589.87 364.45 580.53 376.95 574.89 389.45 574.05 401.95 578.17 414.45 586.45 426.95 597.28 439.45 608.53 451.96 618.03 464.46 623.91 476.96 625.03 489.46 621.16 501.96 613.08 514.46 602.34 526.96 591.05 539.47 581.4 551.97 575.29 564.47 573.89 576.97 575.35 593.03 561.01 591.32 548.83 586.37 536.64 581.94 524.45 578.19 512.27 575.27 500.08 573.29 487.89 572.34 475.71 572.45 463.52 573.62 451.33 575.79 439.15 578.9 426.96 582.8 414.77 587.36 402.58 592.39 390.4 597.7 378.21 603.08 366.02 608.32 353.84 613.21 341.65 617.57 329.46 621.22 317.28 624.03 305.09 625.87 292.9 626.69 280.72 626.45 268.53 625.15 256.34 622.85 244.16 619.64 231.97 615.64 219.78 611.02 207.6 605.94 195.41 600.61 192.57 588.13 191.27 575.64 191.77 563.16 193.98 550.68 197.45 538.19 201.52 525.71 205.39 513.23 208.3 500.74 209.69 488.26 209.29 475.78 207.17 463.29 203.75 450.81 199.7 438.33 195.8 425.84 192.81 413.36 191.33 400.88 191.63 388.39 193.66 375.91 197.03 363.42 201.07 350.94 205 338.46 208.05 325.97 209.63 313.49 209.42 301.01 207.48 288.52 204.17 276.04 200.15 263.56 196.19 251.07 193.07 238.59 191.4 226.11 191.51 213.62 193.36 201.14" stroke-dasharray="4 1" transform="rotate(28.28, 400, 400)" opacity="0.32"></path><path d="M201.78 214.31Q213.13 217.18 224.48 219.83 235.83 222.18 247.18 224.13 258.53 225.63 269.88 226.61 281.23 227.04 292.58 226.91 303.93 226.22 315.28 225 326.63 223.29 337.98 221.15 349.32 218.65 360.67 215.88 372.02 212.94 383.37 209.94 394.72 206.97 406.07 204.14 417.42 201.55 428.77 199.29 440.12 197.45 451.47 196.07 462.82 195.22 474.17 194.93 485.52 195.2 496.87 196.02 508.22 197.36 519.57 199.19 530.92 201.43 542.27 204 553.62 206.82 564.97 209.78 563.83 221.57 567.11 233.36 574.23 245.14 583.93 256.93 594.52 268.72 604.15 280.5 611.11 292.29 614.2 304.08 612.87 315.86 607.35 327.65 598.61 339.44 588.19 351.22 577.91 363.01 569.57 374.8 564.64 386.58 563.98 398.37 567.7 410.16 575.16 421.95 585.05 433.73 595.63 445.52 605.04 457.31 611.64 469.09 614.27 480.88 612.47 492.67 606.55 504.45 597.55 516.24 587.05 528.03 576.9 539.81 568.86 551.6 564.36 563.39 560.55 578.58 545.51 577.27 534.1 572.95 522.68 569.2 511.27 566.14 499.85 563.89 488.44 562.51 477.02 562.06 465.61 562.56 454.19 563.98 442.78 566.28 431.36 569.38 419.95 573.16 408.53 577.5 397.12 582.24 385.71 587.22 374.29 592.26 362.88 597.19 351.46 601.82 340.05 606.01 328.63 609.61 317.22 612.48 305.8 614.52 294.39 615.68 282.97 615.89 271.56 615.17 260.14 613.53 248.73 611.02 237.32 607.75 225.9 603.81 214.49 599.36 203.07 594.55 201.47 582.66 201.54 570.78 203.27 558.9 206.35 547.02 210.25 535.13 214.28 523.25 217.73 511.37 220 499.49 220.69 487.6 219.68 475.72 217.15 463.84 213.54 451.96 209.48 440.07 205.69 428.19 202.83 416.31 201.4 404.43 201.65 392.54 203.54 380.66 206.74 368.78 210.69 356.9 214.68 345.01 218.04 333.13 220.15 321.25 220.66 309.37 219.48 297.48 216.81 285.6 213.12 273.72 209.05 261.84 205.33 249.95 202.6 238.07 201.34 226.19 201.78 214.31" stroke-dasharray="6 1" transform="rotate(32.32, 400, 400)" opacity="0.35"></path><path d="M211.37 227.48Q222.07 230.07 232.77 232.39 243.46 234.37 254.16 235.95 264.86 237.08 275.56 237.72 286.25 237.85 296.95 237.47 307.65 236.59 318.34 235.24 329.04 233.46 339.74 231.3 350.43 228.84 361.13 226.15 371.83 223.31 382.52 220.42 393.22 217.55 403.92 214.82 414.61 212.29 425.31 210.05 436.01 208.17 446.7 206.7 457.4 205.7 468.1 205.19 478.79 205.19 489.49 205.7 500.19 206.71 510.88 208.18 521.58 210.06 532.28 212.3 542.98 214.83 553.67 217.57 556.16 228.65 562.15 239.73 570.7 250.81 580.47 261.89 589.93 272.97 597.6 284.04 602.28 295.12 603.23 306.2 600.3 317.28 593.96 328.36 585.19 339.44 575.38 350.52 566.05 361.6 558.68 372.68 554.4 383.76 553.91 394.84 557.26 405.92 563.94 417 572.9 428.08 582.74 439.15 591.91 450.23 598.98 461.31 602.84 472.39 602.89 483.47 599.11 494.55 592.11 505.63 582.97 516.71 573.13 527.79 564.13 538.87 557.38 549.95 548.79 564.34 532.93 563.54 522.22 559.89 511.51 556.82 500.8 554.44 490.09 552.8 479.38 551.97 468.67 551.97 457.96 552.79 447.25 554.43 436.54 556.81 425.84 559.87 415.13 563.52 404.42 567.63 393.71 572.08 383 576.74 372.29 581.45 361.58 586.06 350.87 590.44 340.16 594.45 329.45 597.96 318.74 600.85 308.03 603.05 297.32 604.48 286.61 605.1 275.91 604.89 265.2 603.85 254.49 602.02 243.78 599.45 233.07 596.22 222.36 592.45 211.65 588.23 211.48 576.96 212.89 565.68 215.64 554.41 219.31 543.14 223.32 531.86 227.05 520.59 229.9 509.32 231.44 498.04 231.42 486.77 229.85 475.5 226.96 464.22 223.22 452.95 219.21 441.68 215.56 430.4 212.84 419.13 211.47 407.86 211.67 396.58 213.41 385.31 216.42 374.03 220.23 362.76 224.23 351.49 227.8 340.21 230.39 328.94 231.58 317.67 231.19 306.39 229.29 295.12 226.16 283.85 222.3 272.57 218.32 261.3 214.83 250.03 212.39 238.75 211.37 227.48" stroke-dasharray="5 5" transform="rotate(36.36, 400, 400)" opacity="0.39"></path><path d="M222.39 240.58Q232.5 242.83 242.61 244.78 252.71 246.38 262.82 247.58 272.93 248.34 283.03 248.66 293.14 248.51 303.25 247.9 313.35 246.86 323.46 245.4 333.57 243.57 343.67 241.42 353.78 239 363.89 236.4 373.99 233.67 384.1 230.9 394.21 228.15 404.31 225.51 414.42 223.06 424.53 220.84 434.63 218.94 444.74 217.4 454.85 216.27 464.95 215.57 475.06 215.33 485.17 215.54 495.27 216.22 505.38 217.33 515.49 218.85 525.59 220.73 535.7 222.92 545.81 225.37 551.09 235.75 558.73 246.13 567.65 256.51 576.62 266.89 584.39 277.27 589.89 287.65 592.34 298.03 591.4 308.41 587.22 318.79 580.36 329.17 571.78 339.55 562.68 349.93 554.32 360.31 547.85 370.69 544.19 381.07 543.83 391.45 546.84 401.83 552.78 412.21 560.84 422.59 569.89 432.97 578.68 443.35 585.99 453.73 590.79 464.11 592.42 474.49 590.66 484.87 585.75 495.25 578.38 505.63 569.55 516.01 560.52 526.39 552.52 536.77 540.19 550.4 523.64 550.2 513.57 547.23 503.5 544.83 493.43 543.07 483.36 542.01 473.29 541.67 463.22 542.05 453.15 543.16 443.08 544.95 433.01 547.38 422.94 550.38 412.87 553.87 402.79 557.76 392.72 561.92 382.65 566.26 372.58 570.64 362.51 574.95 352.44 579.07 342.37 582.88 332.3 586.27 322.23 589.16 312.16 591.47 302.09 593.12 292.02 594.08 281.95 594.31 271.87 593.82 261.8 592.61 251.73 590.71 241.66 588.19 227.18 578 225.3 560.24 228.76 549.59 232.67 538.93 236.49 528.28 239.68 517.62 241.8 506.97 242.56 496.31 241.86 485.65 239.78 475 236.62 464.34 232.82 453.69 228.9 443.03 225.41 432.38 222.84 421.72 221.54 411.07 221.69 400.41 223.28 389.76 226.08 379.1 229.7 368.44 233.63 357.79 237.34 347.13 240.31 336.48 242.12 325.82 242.53 315.17 241.47 304.51 239.09 293.86 235.73 283.2 231.85 272.55 227.99 261.89 224.68 251.23 222.39 240.58" stroke-dasharray="3 1" transform="rotate(40.400000000000006, 400, 400)" opacity="0.43"></path><path d="M234.88 253.53Q244.45 255.4 254.01 256.96 263.57 258.16 273.13 258.99 282.7 259.41 292.26 259.42 301.82 259.02 311.38 258.21 320.95 257.03 330.51 255.48 340.07 253.62 349.64 251.5 359.2 249.15 368.76 246.64 378.32 244.02 387.89 241.38 397.45 238.75 407.01 236.22 416.58 233.85 426.14 231.68 435.7 229.77 445.26 228.18 454.83 226.94 464.39 226.07 473.95 225.61 483.52 225.55 493.08 225.91 502.64 226.67 512.2 227.82 521.77 229.33 531.33 231.15 540.89 233.26 547.87 242.95 556.03 252.64 564.37 262.33 571.87 272.02 577.61 281.71 580.88 291.4 581.3 301.08 578.81 310.77 573.7 320.46 566.62 330.15 558.42 339.84 550.1 349.53 542.69 359.22 537.09 368.91 533.99 378.6 533.76 388.29 536.44 397.98 541.69 407.67 548.87 417.36 557.11 427.05 565.4 436.74 572.72 446.43 578.17 456.12 581.1 465.81 581.14 475.5 578.29 485.19 572.89 494.88 565.61 504.57 557.34 514.26 549.09 523.95 534.46 536.87 517.57 537.3 508.08 534.99 498.59 533.23 489.1 532.06 479.61 531.51 470.12 531.59 460.63 532.31 451.14 533.63 441.65 535.54 432.17 537.99 422.68 540.91 413.19 544.23 403.7 547.88 394.21 551.76 384.72 555.78 375.23 559.84 365.74 563.85 356.25 567.7 346.76 571.3 337.27 574.56 327.78 577.41 318.29 579.78 308.8 581.6 299.32 582.83 289.83 583.45 280.34 583.44 270.85 582.79 261.36 581.52 251.87 579.68 238.85 570.84 238.64 554.36 242.42 544.33 246.22 534.3 249.56 524.28 252.03 514.25 253.34 504.22 253.32 494.19 251.98 484.16 249.47 474.14 246.12 464.11 242.32 454.08 238.54 444.05 235.25 434.03 232.84 424 231.61 413.97 231.72 403.94 233.14 393.92 235.71 383.89 239.11 373.86 242.92 363.83 246.68 353.8 249.93 343.78 252.27 333.75 253.41 323.72 253.22 313.69 251.72 303.67 249.09 293.64 245.65 283.61 241.82 273.58 238.08 263.55 234.88 253.53" stroke-dasharray="6 6" transform="rotate(44.44, 400, 400)" opacity="0.47"></path><path d="M248.66 266.25Q257.7 267.72 266.74 268.87 275.79 269.69 284.83 270.16 293.88 270.26 302.92 269.99 311.96 269.37 321.01 268.39 330.05 267.09 339.09 265.49 348.14 263.63 357.18 261.54 366.23 259.27 375.27 256.86 384.31 254.37 393.36 251.86 402.4 249.36 411.44 246.95 420.49 244.66 429.53 242.55 438.58 240.66 447.62 239.04 456.66 237.7 465.71 236.7 474.75 236.04 483.79 235.74 492.84 235.81 501.88 236.24 510.93 237.03 519.97 238.15 529.01 239.59 538.06 241.32 545.56 250.33 553.22 259.34 560.21 268.35 565.79 277.35 569.37 286.36 570.56 295.37 569.23 304.38 565.54 313.39 559.86 322.4 552.81 331.41 545.14 340.42 537.67 349.43 531.19 358.44 526.4 367.44 523.81 376.45 523.69 385.46 526.06 394.47 530.66 403.48 537 412.49 544.41 421.5 552.1 430.51 559.24 439.52 565.08 448.53 568.98 457.53 570.54 466.54 569.59 475.55 566.22 484.56 560.81 493.57 553.92 502.58 546.29 511.59 530.93 523.82 514.17 524.89 505.22 523.21 496.28 522.04 487.33 521.4 478.38 521.3 469.43 521.74 460.49 522.73 451.54 524.22 442.59 526.2 433.64 528.63 424.7 531.44 415.75 534.58 406.8 537.99 397.85 541.59 388.91 545.3 379.96 549.05 371.01 552.75 362.07 556.33 353.12 559.72 344.17 562.83 335.22 565.61 326.28 567.99 317.33 569.93 308.38 571.38 299.43 572.31 290.49 572.71 281.54 572.56 272.59 571.86 263.64 570.64 251.84 563.13 252.65 547.95 256.36 538.56 259.7 529.17 262.33 519.78 263.96 510.39 264.42 501 263.67 491.61 261.77 482.22 258.94 472.83 255.47 463.44 251.74 454.05 248.15 444.66 245.07 435.27 242.83 425.88 241.68 416.49 241.74 407.1 243 397.71 245.33 388.32 248.47 378.93 252.1 369.54 255.82 360.15 259.24 350.76 261.99 341.37 263.79 331.98 264.43 322.59 263.85 313.2 262.12 303.81 259.41 294.42 256.01 285.03 252.3 275.64 248.66 266.25" stroke-dasharray="5 6" transform="rotate(48.48, 400, 400)" opacity="0.51"></path><path d="M263.33 278.66Q280.38 280.48 297.43 281.07 314.49 280.37 331.54 278.45 348.59 275.43 365.64 271.54 382.7 267.07 399.75 262.34 416.8 257.69 433.85 253.46 450.91 249.97 467.96 247.46 485.01 246.12 502.06 246.05 519.12 247.25 536.17 249.63 549.47 266.31 558.09 282.98 558.94 299.66 551.71 316.33 539.01 333.01 525.39 349.68 515.78 366.36 513.62 383.04 519.7 399.71 531.82 416.39 545.63 433.06 556.15 449.74 559.59 466.41 554.72 483.09 543.29 499.76 529.41 516.44 512.57 512.99 495.72 511.25 478.87 511.36 462.03 513.3 445.18 516.92 428.33 521.98 411.48 528.09 394.64 534.82 377.79 541.67 360.94 548.14 344.1 553.76 327.25 558.12 310.4 560.91 293.56 561.92 276.71 561.07 259.86 558.43 266.98 540.95 272.85 523.46 275.35 505.98 273.58 488.49 268.18 471 261.1 453.52 254.87 436.03 251.76 418.55 252.86 401.06 257.8 383.58 264.78 366.09 271.31 348.6 275.01 331.12 274.58 313.63 270.15 296.15 263.33 278.66" stroke-dasharray="3 7" transform="rotate(52.52, 400, 400)" opacity="0.54"></path><path d="M278.34 290.71Q294.32 291.76 310.3 291.71 326.28 290.55 342.26 288.37 358.24 285.29 374.22 281.51 390.2 277.27 406.18 272.82 422.15 268.44 438.13 264.41 454.11 260.97 470.09 258.35 486.07 256.69 502.05 256.12 518.03 256.65 534.01 258.27 544.1 273.62 548.61 288.97 546.15 304.32 537.48 319.67 525.27 335.02 513.29 350.37 505.21 365.73 503.55 381.08 508.8 396.43 519.35 411.78 531.95 427.13 542.71 442.48 548.32 457.84 547.06 473.19 539.3 488.54 527.44 503.89 511.65 501.62 495.86 500.87 480.07 501.68 464.28 504.01 448.49 507.7 432.69 512.52 416.9 518.19 401.11 524.34 385.32 530.59 369.53 536.56 353.74 541.87 337.95 546.19 322.15 549.26 306.36 550.88 290.57 550.96 274.78 549.48 281.21 533.31 285.41 517.13 286.1 500.96 283.05 484.79 277.22 468.61 270.39 452.44 264.67 436.27 261.83 420.09 262.73 403.92 267.11 387.75 273.6 371.57 280.22 355.4 284.92 339.23 286.25 323.05 283.81 306.88 278.34 290.71" stroke-dasharray="8 5" transform="rotate(56.56, 400, 400)" opacity="0.58"></path><path d="M293.04 302.32Q307.88 302.66 322.72 302.05 337.56 300.53 352.39 298.16 367.23 295.08 382.07 291.45 396.91 287.45 411.74 283.3 426.58 279.21 441.42 275.39 456.25 272.06 471.09 269.37 485.93 267.47 500.77 266.47 515.6 266.41 530.44 267.29 536.63 281.33 537.33 295.38 532.35 309.42 522.99 323.47 511.67 337.51 501.36 351.56 494.71 365.6 493.48 379.65 497.96 393.69 507.01 407.73 518.26 421.78 528.8 435.82 535.87 449.87 537.65 463.91 533.66 477.96 524.95 492 510.26 490.8 495.57 490.88 480.88 492.26 466.19 494.84 451.5 498.51 436.81 503.07 422.12 508.27 407.43 513.86 392.74 519.53 378.05 524.98 363.36 529.95 348.67 534.15 333.98 537.38 319.29 539.47 304.6 540.3 289.91 539.84 294.89 524.99 297.17 510.15 296.15 495.3 292.1 480.46 286.08 465.61 279.64 450.77 274.47 435.93 271.9 421.08 272.61 406.24 276.41 391.39 282.31 376.55 288.78 361.7 294.14 346.86 296.99 332.01 296.59 317.17 293.04 302.32" stroke-dasharray="5 6" transform="rotate(60.599999999999994, 400, 400)" opacity="0.62"></path><path d="M306.8 313.47Q320.41 313.18 334.02 312.11 347.63 310.3 361.24 307.82 374.85 304.8 388.46 301.34 402.07 297.62 415.68 293.78 429.29 289.99 442.9 286.42 456.51 283.22 470.12 280.53 483.73 278.46 497.34 277.11 510.95 276.53 524.56 276.76 526.83 289.51 524.38 302.26 517.76 315.01 508.38 327.77 498.27 340.52 489.61 353.27 484.27 366.02 483.4 378.78 487.19 391.53 494.82 404.28 504.65 417.03 514.54 429.79 522.38 442.54 526.47 455.29 525.93 468.04 520.86 480.8 507.35 480.5 493.83 481.27 480.31 483.06 466.79 485.8 453.27 489.37 439.75 493.61 426.23 498.35 412.72 503.38 399.2 508.47 385.68 513.42 372.16 518 358.64 522.02 345.12 525.3 331.6 527.7 312.85 522.56 307.95 502.5 305.48 489 300.76 475.49 294.78 461.99 288.86 448.49 284.26 434.99 281.97 421.49 282.5 407.98 285.72 394.48 290.94 380.98 297.04 367.48 302.69 353.97 306.69 340.47 308.16 326.97 306.8 313.47" stroke-dasharray="0 4" transform="rotate(64.64, 400, 400)" opacity="0.66"></path><path d="M319.05 324.1Q331.35 323.3 343.64 321.87 355.94 319.87 368.24 317.36 380.54 314.44 392.84 311.21 405.13 307.77 417.43 304.26 429.73 300.78 442.03 297.48 454.33 294.45 466.62 291.81 478.92 289.65 491.22 288.05 509.1 292.62 510.02 309.66 502.63 321.13 493.81 332.6 485.12 344.08 478.06 355.55 473.89 367.02 473.33 378.5 476.48 389.97 482.8 401.44 491.16 412.91 500.1 424.39 508.07 435.86 513.65 447.33 508.98 464.76 489.82 472 477.56 474.07 465.29 476.85 453.03 480.26 440.76 484.16 428.5 488.42 416.23 492.9 403.97 497.43 391.7 501.86 379.44 506.03 367.18 509.8 354.91 513.03 342.65 515.61 324.73 511.89 317.67 494.19 314.12 482.04 309.06 469.89 303.37 457.74 298.06 445.59 294.05 433.44 292.04 421.29 292.4 409.15 295.05 397 299.53 384.85 305.06 372.7 310.67 360.55 315.36 348.4 318.33 336.25 319.05 324.1" stroke-dasharray="3 1" transform="rotate(68.68, 400, 400)" opacity="0.70"></path><path d="M329.44 334.21Q340.36 333.01 351.27 331.34 362.19 329.24 373.1 326.78 384.02 324.02 394.93 321.04 405.85 317.91 416.76 314.74 427.68 311.59 438.59 308.57 449.51 305.76 460.42 303.23 471.34 301.05 482.25 299.29 496.83 302.69 494.61 317.59 487.25 327.8 479.43 338 472.26 348.2 466.71 358.41 463.57 368.61 463.26 378.81 465.84 389.01 470.94 399.22 477.85 409.42 485.62 419.62 493.17 429.82 499.43 440.03 498.79 455.83 483.09 463.06 472.16 465.27 461.23 468 450.29 471.17 439.36 474.7 428.43 478.48 417.49 482.42 406.56 486.4 395.63 490.31 384.7 494.05 373.76 497.51 362.83 500.6 351.9 503.22 335.03 500.67 326.33 485.24 322.13 474.45 317.09 463.66 311.88 452.88 307.25 442.09 303.84 431.3 302.11 420.51 302.32 409.72 304.42 398.94 308.14 388.15 312.94 377.36 318.17 366.57 323.1 355.78 327.04 345 329.44 334.21" stroke-dasharray="4 6" transform="rotate(72.72, 400, 400)" opacity="0.73"></path><path d="M337.88 343.78Q347.36 342.32 356.85 340.52 366.34 338.43 375.82 336.08 385.31 333.53 394.79 330.83 404.28 328.04 413.76 325.22 423.25 322.42 432.74 319.71 442.22 317.14 451.71 314.77 461.19 312.65 470.68 310.83 477.16 324.13 465.37 343.96 459.73 352.9 455.55 361.84 453.29 370.77 453.19 379.71 455.25 388.65 459.26 397.59 464.79 406.53 471.25 415.47 477.94 424.4 484.17 433.34 486.18 447.44 473.57 454.41 464.03 456.64 454.49 459.22 444.95 462.1 435.41 465.23 425.86 468.53 416.32 471.94 406.78 475.38 397.24 478.78 387.7 482.07 378.16 485.17 368.62 488.03 359.08 490.58 343.57 488.95 334.01 475.7 329.63 466.28 324.91 456.85 320.36 447.43 316.46 438.01 313.64 428.59 312.19 419.16 312.26 409.74 313.85 400.32 316.79 390.89 320.77 381.47 325.36 372.05 330.07 362.62 334.39 353.2 337.88 343.78" stroke-dasharray="1 2" transform="rotate(76.76, 400, 400)" opacity="0.77"></path><path d="M344.54 352.82Q360.62 349.44 376.69 345.27 392.77 340.6 408.85 335.7 424.93 330.88 441.01 326.44 459.72 328.88 451.74 350.47 444.59 365.82 443.12 381.18 447.77 396.53 457.11 411.88 468.26 427.24 477.8 442.59 461.57 446.01 445.34 450.49 429.11 455.75 412.88 461.46 396.65 467.26 380.43 472.8 364.2 477.72 347.97 481.74 340.9 465.62 332.63 449.51 325.7 433.39 322.26 417.28 323.35 401.17 328.65 385.05 336.52 368.94 344.54 352.82" stroke-dasharray="3 8" transform="rotate(80.80000000000001, 400, 400)" opacity="0.81"></path><path d="M349.87 361.37Q363.08 358.1 376.29 354.36 389.5 350.33 402.71 346.18 415.92 342.08 429.13 338.22 444.39 339.71 438.64 357.5 433.83 370.33 433.05 383.16 436.46 395.99 443.33 408.82 449.96 429.74 434.37 441.81 421.01 446.26 407.65 450.98 394.29 455.76 380.93 460.4 367.56 464.7 354.2 468.47 347.25 455.08 340.35 441.69 334.99 428.31 332.33 414.92 332.94 401.53 336.69 388.15 342.77 374.76 349.87 361.37" stroke-dasharray="6 4" transform="rotate(84.84, 400, 400)" opacity="0.85"></path><path d="M354.56 369.46Q364.97 366.53 375.38 363.36 385.78 360.03 396.19 356.66 406.59 353.32 417 350.1 429.31 350.92 426.14 365.02 423.25 375.32 422.97 385.61 425.34 395.91 430.02 406.21 434.66 423.16 422.42 433.17 411.89 436.76 401.35 440.5 390.82 444.28 380.29 447.99 369.75 451.54 359.22 454.83 353.38 444.16 348.18 433.49 344.34 422.82 342.4 412.15 342.63 401.48 344.99 390.81 349.17 380.13 354.56 369.46" stroke-dasharray="7 2" transform="rotate(88.88, 400, 400)" opacity="0.89"></path><path d="M359.42 377.15Q374.81 372.26 390.2 367.14 409.93 367.53 412.9 388.47 417.25 403.97 425.99 419.48 410.43 424.53 394.87 430.02 379.31 435.59 363.75 440.92 356.22 424.98 352.47 409.04 353.66 393.1 359.42 377.15" stroke-dasharray="3 4" transform="rotate(92.92, 400, 400)" opacity="0.92"></path><path d="M365.28 384.51Q375.42 381.09 385.57 377.62 399.4 377.71 402.83 391.64 402.21 408.96 389.1 419.54 371.73 419.73 362.54 405.67 362.79 395.09 365.28 384.51" stroke-dasharray="7 1" transform="rotate(96.96, 400, 400)" opacity="0.96"></path></g></svg>