<svg xmlns="http://www.w3.org/2000/svg" version="1.1" xmlns:xlink="http://www.w3.org/1999/xlink" viewBox="0 0 1422 800" style="overflow: hidden; display: block;" width="1422" height="800"><defs><linearGradient id="dddraw-gradient" x1="711" y1="-400" x2="711" y2="800" spreadMethod="pad" gradientUnits="userSpaceOnUse"><stop offset="0%" stop-color="hsl(185, 53%, 55%)" stop-opacity="1"></stop><stop offset="100%" stop-color="hsl(0, 73%, 55%)" stop-opacity="1"></stop></linearGradient></defs><g id="two-0" transform="matrix(1 0 0 1 0 0)" opacity="1"><path transform="matrix(1 0 0 1 0 0)" id="two-20" d="M 386.145294 189.452148 C 386.145294 189.452148 385.398618 189.452148 385.030853 189.452148 C 384.663097 189.452148 383.916442 189.452148 383.916442 189.452148 " fill="transparent" stroke="rgb(17, 24, 39)" stroke-width="30" stroke-opacity="1" fill-opacity="1" visibility="visible" stroke-linecap="butt" stroke-linejoin="miter" stroke-miterlimit="4"></path></g><path d="M 299.2169739339617 325.4024556105332 Q 299.2169739339617 325.4024556105332 296.301137116305 299.66259087460816 293.3853002986483 273.9227261386831 325.5394286678591 264.4086955199608 357.6935570370699 254.89466490123846 392.9143341717536 249.1724673573178 428.13511130643724 243.45026981339714 463.41998020676283 241.46906521666494 498.7048491070884 239.48786061993275 532.5235031924938 240.64961737303807 566.3421572778991 241.8113741261434 600.2758863214603 247.78612087621804 634.2096153650217 253.76086762629268 663.0175886380057 270.54766704383474 691.8255619109897 287.3344664613768 717.1449596521281 310.36382862961403 742.4643573932667 333.3931907978513 756.5405116009991 362.7332335846307 770.6166658087316 392.0732763714101 774.8588317713259 425.0669926429173 779.10099773392 458.0607089144244 782.3419754962865 490.41258648044186 785.582953258653 522.7644640464592 784.6702368839782 556.6704842512647 783.7575205093034 590.5765044560703 772.3313478662947 628.5719772188698 760.905175223286 666.5674499816694 721.7870902191875 670.4530261935249 682.6690052150889 674.3386024053806 654.2897505734585 658.2275896120398 625.9104959318281 642.1165768186991 614.7884749020201 611.2266229171602 603.6664538722121 580.3366690156213 606.3404526075105 547.2060243058133 609.0144513428089 514.0753795960054 604.2535400965271 481.0823250520375 599.4926288502452 448.08927050806966 589.3802394890803 416.22229739566814 579.2678501279154 384.3553242832666 557.4852121618089 358.28277620654086 535.7025741957025 332.2102281298151 503.59087240923 323.8999964227674 471.4791706227574 315.5897647157197 437.8760292628025 311.85605841065853 404.2728879028476 308.1223521055973 371.1027216461679 311.72350549802115 337.93255538948824 315.324658890445 304.9215901788231 324.235619967793 271.910624968158 333.1465810451411 262.44974486837333 333.7078835325023 252.98886476858868 334.2691860198635 243.84403274504712 331.7801380078662 234.69920072150558 329.2910899958688 226.82788310107313 324.01229546841375 218.95656548064068 318.7335009409587 213.1828912960027 311.2176510785371 207.4092171113647 303.70180121611537 204.33769157375474 294.73580748331426 201.26616603614474 285.7698137505131 201.21837868015453 276.2924180579493 201.17059132416432 266.8150223653855 204.1515454985807 257.81851054385993 207.13249967299708 248.8219987223344 212.83008868886316 241.2483079344093 218.52767770472926 233.67461714648422 226.34536248806643 228.31671481691552 234.16304727140363 222.95881248734685 243.28231416172815 220.37767240438927 252.4015810520527 217.7965323214317 261.8676403986949 218.2624005331257 271.3336997453371 218.72826874481973 280.1554526359066 222.1923687264237 288.97720552647604 225.65646870802763 296.23101210461357 231.756108277034 303.4848186827511 237.8557478460404 308.41120348490665 245.95229312942575 313.3375882870622 254.04883841281114 315.42075752401087 263.2945789821247 317.50392676095953 272.54031955143824 316.5257720636895 281.9672239284343 315.54761736641944 291.39412830543034 311.61055178994263 300.0151971133764 307.6734862134658 308.6362659213225 301.18972156292375 315.5488709802854 294.7059569123817 322.46147603924834 286.3543450582337 326.9418657748042 278.00273320408576 331.4222555103601 268.65769011207266 333.00133193448823 259.31264702005956 334.58040835861635 249.95260116876688 333.0928417528748 240.59255531747417 331.6052751471332 232.1975059783444 327.20681412782255 223.8024566392146 322.80835310851194 217.25136769413237 315.95951770543496 210.70027874905014 309.110682302358 206.67905093988514 300.5285473901338 202.65782313072015 291.9464124779096 201.587480070593 282.52952984731166 200.51713701046583 273.1126472167137 202.50974390031496 263.8469669649813 204.5023507901641 254.5812867132489 209.34928116262518 246.4369280086403 214.19621153508626 238.29256930403173 221.38999050069728 232.12224865282144 228.5837694663083 225.95192800161118 237.3712064683965 222.4016796047874 246.15864347048475 218.85143120796363 246.15007133418277 218.85336260659045 246.14149919788076 218.85529400521725 253.9130308060531 216.46855453419408 261.6845624142254 214.08181506317095 294.472243231318 205.40430431755493 327.2599240484106 196.72679357193894 360.29840817849964 193.50563000835746 393.3368923085887 190.28446644477594 425.49799968719446 193.03525325241418 457.65910706580024 195.78604006005241 489.5449832000596 200.39998154181842 521.430859334319 205.01392302358445 554.0625300182974 215.83589741538572 586.6942007022758 226.65787180718698 614.5267208206797 244.85291442224093 642.3592409390835 263.0479570372949 661.002330917478 291.3665343707424 679.6454208958726 319.68511170418986 691.2379392488614 349.7496762575322 702.8304576018502 379.81424081087454 709.7334674855178 411.24334892116815 716.6364773691854 442.6724570314618 721.0363409781799 474.6203723886748 725.4362045871743 506.5682877458878 729.6308290366527 539.1886282772886 733.8254534861311 571.8089688086893 700.2248697766527 581.4251969055297 666.6242860671744 591.0414250023701 668.4709588934595 558.3416754368681 670.3176317197446 525.641925871366 667.1444455097394 492.9974266922993 663.9712592997344 460.35292751323266 655.1518124047245 429.0534263776102 646.3323655097148 397.7539252419878 620.7190621118868 378.2151232149735 595.105758714059 358.6763211879592 562.3996938022273 354.3204855432075 529.6936288903955 349.9646498984557 497.2196315146067 349.4243212356598 464.74563413881793 348.88399257286386 430.1142832691455 351.58186977143 395.4829323994731 354.27974696999604 360.69053983581284 362.0577121826242 325.8981472721525 369.8356773952524 312.56077099526726 347.62853716189085 299.22339471838205 325.4213969285293 299.2201843261719 325.41192626953125 Z" fill="url(#dddraw-gradient)"></path><path d="M 767.431317321823 643.6021995002623 Q 767.431317321823 643.6021995002623 765.3962519261308 643.0305053191869 763.3611865304385 642.4588111381114 752.7424632882112 639.0456684134303 742.1237400459837 635.6325256887492 730.9054745021356 631.772514542901 719.6872089582873 627.9125033970529 709.4410470670957 623.3883615436955 699.1948851759042 618.864219690338 689.0885850821397 614.0174155133152 678.9822849883752 609.1706113362924 668.9215345709079 603.7042672903233 658.8607841534404 598.2379232443543 648.8110559356937 592.9900405122544 638.761327717947 587.7421577801543 628.2889699034138 582.4757499722165 617.8166120888806 577.2093421642786 608.357693127056 570.7793055791799 598.8987741652314 564.3492689940811 595.1319644882819 552.584231050787 591.3651548113324 540.819193107493 591.0389072882587 529.414562877939 590.7126597651849 518.0099326483851 589.6992382420719 507.0461886022398 588.6858167189589 496.08244455609446 592.3201159928428 485.72218602729697 595.9544152667269 475.3619274984994 602.6006993500379 464.7501080753453 609.2469834333489 454.13828865219114 616.3337862893916 444.90818854983587 623.4205891454343 435.6780884474806 630.4575767984636 426.93836643580437 637.494564451493 418.1986444241282 645.5907279210535 409.79992067200567 653.6868913906138 401.4011969198832 662.4782252782293 393.01821736500415 671.2695591658447 384.6352378101251 679.1671916800676 376.9717270279972 687.0648241942906 369.30821624586935 695.3009475549159 361.31313951226105 703.5370709155411 353.3180627786527 711.4332238158115 344.16403994119173 719.3293767160818 335.01001710373083 723.3118343049061 323.3304591462236 727.2942918937304 311.6509011887164 724.4684056763906 300.2232997330092 721.6425194590508 288.79569827730205 713.908328585259 280.8822071990322 706.1741377114672 272.9687161207624 695.2708943204931 268.33684957363096 684.367650929519 263.7049830264996 673.8570913912786 260.03825316529617 663.3465318530381 256.3715233040927 652.3011331557551 253.7526628069744 641.2557344584721 251.13380230985607 629.7187351083064 249.62617928544395 618.1817357581407 248.11855626103184 606.0498802921779 247.94951455998748 593.9180248262151 247.7804728589431 581.2137425279616 250.55368986226904 568.5094602297082 253.32690686559496 556.3041229073184 256.6902300346619 544.0987855849286 260.0535532037288 532.1199031027775 263.8639713758758 520.1410206206263 267.67438954802276 507.8713704007673 271.19830895994744 495.60172018090844 274.7222283718721 483.67471066290346 278.0171365998116 471.7477011448985 281.31204482775104 459.0334851757747 284.72172145164706 446.31926920665086 288.1313980755431 435.38534933884773 290.53860792683736 424.45142947104455 292.94581777813164 412.5411499299589 296.329627827645 400.63087038887335 299.71343787715836 389.58177382722795 303.4882678385984 378.5326772655825 307.26309780003845 367.03525950079256 310.9795383988695 355.53784173600263 314.69597899770054 343.54994118524695 318.1114142786038 331.56204063449127 321.52684955950707 320.9396667451754 324.4246549711832 310.3172928558594 327.32246038285933 298.11042406338584 330.1880654664242 285.9035552709122 333.053670549989 274.27865877152885 334.9762145270038 262.65376227214546 336.8987585040185 251.2306529095815 337.81454479269075 239.80754354701753 338.7303310813631 228.0543935746814 338.70472908976257 216.30124360234527 338.67912709816204 205.2494292268865 333.7181895030164 194.1976148514277 328.75725190787074 184.27272950434957 321.2620597655809 174.34784415727142 313.76686762329103 170.66628680324902 302.39056644994196 166.9847294492266 291.0142652765928 166.50575727624954 278.95175316342494 166.02678510327252 266.88924105025706 166.69155762915256 255.40463658561322 167.35633015503257 243.92003212096938 169.25266440571036 233.1071190103687 171.14899865638816 222.29420589976803 175.18748193232113 211.98002844122422 179.22596520825408 201.6658509826804 186.37607971171624 190.80878568724268 193.5261942151784 179.9517203918049 201.93074296705518 172.2577619194043 210.33529171893196 164.56380344700364 220.6727825495799 159.04342559562792 231.01027338022783 153.5230477442522 241.7612106720358 151.1405974531428 252.51214796384374 148.7581471620334 263.65803393629596 149.63336302157325 274.8039199087481 150.50857888111307 285.7663287306227 154.6093081453189 296.7287375524973 158.71003740952474 308.35468776269374 162.1976992951926 319.98063797289024 165.68536118086044 329.9161296085142 171.5482494655275 339.85162124413813 177.41113775019457 348.2961828147408 184.90984750652953 356.7407443853435 192.4085572628645 364.56934416246196 201.63220505090916 372.39794393958044 210.85585283895384 379.157386849957 220.40091577257562 385.9168297603335 229.94597870619737 392.0248534396468 240.3533180255382 398.1328771189601 250.760657344879 401.9047853882728 262.5002550762737 405.67669365758553 274.2398528076683 408.6769630255793 285.4719341581822 411.6772323935731 296.70401550869605 414.48565528892834 307.9066659183868 417.29407818428365 319.1093163280776 423.0260625769729 329.21391013573697 428.7580469696622 339.3185039433963 433.51568128671215 349.26272242974255 438.2733156037621 359.20694091608885 448.1165874235947 364.03622413391264 457.9598592434273 368.8655073517364 468.1128876579403 372.99902473238694 478.26591607245336 377.1325421130375 489.50671517341084 373.24234314598937 500.74751427436837 369.3521441789413 511.41830526517595 362.64071729480094 522.0890962559836 355.9292904106606 532.1445293815461 348.4501999668397 542.1999625071086 340.97110952301875 551.1064172012378 334.3162235239629 560.0128718953671 327.6613375249071 569.5919136189062 321.10411088763306 579.1709553424454 314.546884250359 588.8363099048192 307.702649416938 598.5016644671932 300.85841458351695 606.89486482492 293.66618408131296 615.2880651826467 286.47395357910904 625.8264542976963 280.6003742002765 636.3648434127458 274.726794821444 646.6253201066168 270.46977558338125 656.8857968004877 266.2127563453185 667.5795416873361 262.4776051678498 678.2732865741847 258.742453990381 690.2297242429079 255.90313981521578 702.1861619116311 253.06382564005054 713.4568442153009 251.59616546466918 724.7275265189708 250.12850528928786 735.6574970265322 249.18046233182724 746.5874675340937 248.23241937436666 758.5642927722854 250.06776886487245 770.5411180104771 251.9031183553782 781.1391687163884 256.55625496407436 791.7372194222997 261.20939157277047 801.2319468969758 268.05383938930834 810.7266743716518 274.8982872058462 817.1996318625725 284.3302418258186 823.6725893534931 293.762196445791 829.7090336451986 304.9537802560709 835.7454779369041 316.14536406635085 838.2281230990602 327.48122905584677 840.7107682612165 338.8170940453427 840.9213204109683 350.857663236576 841.1318725607202 362.8982324278093 839.9813005309804 374.2376318415161 838.8307285012407 385.57703125522283 834.8936787761218 396.29822904752916 830.9566290510029 407.0194268398355 824.7431886228801 416.4823746937755 818.5297481947572 425.94532254771553 811.2091132364008 435.0945563596954 803.8884782780442 444.2437901716752 795.67882138412 452.775261764765 787.469164490196 461.30673335785474 778.5051241884315 468.15218699205957 769.541083886667 474.99764062626434 758.8405908336505 481.78277112633685 748.1400977806339 488.56790162640937 738.4792799826909 494.139752322205 728.8184621847478 499.7116030180007 717.8036590022062 505.09229038863464 706.7888558196647 510.47297775926864 694.9934602264892 515.2045986968386 683.1980646333137 519.9362196344086 672.3931548278432 524.1363884772297 661.5882450223727 528.3365573200509 651.2951842553359 532.5398606701277 641.0021234882993 536.7431640202045 630.8125861415382 541.6467816923373 620.6230487947771 546.5503993644701 610.5128924458528 552.0241057142118 600.4027360969285 557.4978120639536 590.8604742678174 563.2316970808754 581.3182124387062 568.9655820977971 571.6643617793559 576.4155535740949 562.0105111200055 583.8655250503929 556.0238314257133 593.3291608710522 550.037151731421 602.7927966917116 558.2218765251564 611.2647465761149 566.4066013188918 619.7366964605183 577.2743854541025 622.8195178146218 588.142169589313 625.9023391687252 599.5666460491411 621.1396025960728 610.9911225089694 616.3768660234202 621.3801720603159 611.7100076491165 631.7692216116624 607.0431492748129 642.4494668408108 602.2800013763899 653.1297120699592 597.516853477967 663.1223519489796 592.0353725755256 673.114991828 586.5538916730841 682.6787533715913 578.5075010244327 692.2425149151825 570.4611103757813 702.0569131278332 562.9672421441861 711.8713113404841 555.4733739125909 722.7963244102953 549.1670590791427 733.7213374801065 542.8607442456945 744.5814276044756 537.4928521059535 755.4415177288447 532.1249599662124 765.5628762080676 527.8479425920771 775.6842346872903 523.5709252179417 786.386676034014 520.2986666830948 797.0891173807378 517.0264081482478 808.6353439373604 513.6365061447323 820.1815704939831 510.2466041412166 831.8943341774849 507.1632882184021 843.6070978609866 504.0799722955876 855.2096149879694 503.2195308021726 866.8121321149521 502.3590893087575 874.1721997798625 505.0478096938429 881.5322674447729 507.7365300789283 881.5336804345104 507.7413262711682 881.5350934242479 507.746122463408 881.5365064139853 507.75091865564787 881.5379194037229 507.75571484788776 874.3390736601403 513.1842926525022 867.1402279165578 518.6128704571167 855.8551752202154 519.5383529971754 844.5701225238729 520.463835537234 833.4947600057546 523.3728890295881 822.4193974876363 526.2819425219421 811.8534210604239 529.4916980859257 801.2874446332115 532.7014536499094 790.4465239186186 536.1320067083702 779.6056032040258 539.5625597668311 768.5120009606942 544.3228041662082 757.4183987173625 549.0830485655853 747.0421303960263 554.4290596665337 736.6658620746902 559.7750707674821 726.411318921552 565.9319268239093 716.156775768414 572.0887828803365 706.7224682720241 579.7863570358254 697.2881607756343 587.4839311913145 688.0191404389896 594.9149988765867 678.7501201023448 602.3460665618587 667.7209538348569 608.0056625855509 656.691787567369 613.665258609243 645.7942956735089 618.5417605861676 634.8968037796487 623.4182625630923 623.8918955840538 628.3159663390613 612.8869873884589 633.2136701150305 602.5450544800119 637.4449849769969 592.2031215715648 641.6762998389635 580.0209536901734 639.9879136612026 567.838785808782 638.2995274834417 558.0286082935629 633.3163939844019 548.2184307783439 628.333260485362 540.0359206434576 619.2100017753933 531.8534105085714 610.0867430654245 535.4375560012174 599.5134453371099 539.0217014938635 588.9401476087954 545.4982072667799 580.0845015263615 551.9747130396962 571.2288554439274 561.6107682338444 563.6705551777618 571.2468234279926 556.1122549115961 580.848016974169 550.3933381548313 590.4492105203456 544.6744213980664 600.4877384548743 539.1250917663314 610.526266389403 533.5757621345963 620.6614409386559 528.6649815545452 630.796615487909 523.7542009744942 642.9428694992523 518.6793314603524 655.0891235105956 513.6044619462106 666.4721369049598 509.167437624256 677.855150299324 504.7304133023015 688.8775470256041 500.3030403464071 699.8999437518843 495.87566739051266 710.2204486838011 490.85012419747204 720.540953615718 485.82458100443137 731.7407115108558 479.2478243306927 742.9404694059937 472.67106765695405 753.3888424427196 466.0339930341826 763.8372154794456 459.39691841141115 773.0782222008115 451.6066053304996 782.3192289221776 443.816292249588 790.2139476466864 434.7796521275358 798.1086663711951 425.74301200548365 805.0076643144502 416.5348240139787 811.9066622577052 407.3266360224738 816.581702170608 397.0617269519953 821.2567420835107 386.79681788151674 823.0631058633371 374.8807170575268 824.8694696431635 362.9646162335369 824.6732358105162 351.3762814054215 824.4770019778688 339.78794657730606 821.5646023120912 328.6418415355473 818.6522026463138 317.4957364937886 812.4815749630507 306.95846895725856 806.3109472797876 296.42120142072844 798.90547719084 288.22991547582336 791.5000071018925 280.0386295309183 781.653583613227 274.9541643175655 771.8071601245616 269.8696991042128 760.2095885855765 267.1808439754411 748.6120170465913 264.49198884666947 737.3033540577057 265.4345125004399 725.9946910688203 266.3770361542103 714.7960371299962 267.8503566873941 703.5973831911721 269.3236772205778 691.8920863111962 272.23426266369677 680.1867894312204 275.1448481068157 669.4277025245938 279.132984516869 658.6686156179671 283.1211209269223 648.5120152334302 287.4404419640521 638.3554148488935 291.75976300118197 629.0749082681857 297.7600358674005 619.7944016874778 303.76030873361907 610.7463446758992 311.15807512462385 601.6982876643206 318.55584151562863 592.1308587431585 325.07967439519973 582.5634298219964 331.60350727477083 572.3681704137334 338.7308390040263 562.1729110054704 345.8581707332817 552.1168358876787 353.5304981162833 542.0607607698871 361.2028254992849 532.5688412425952 368.1868504242869 523.0769217153032 375.17087534928885 510.98523606765673 381.7216679201954 498.8935504200102 388.2724604911019 486.9048549942811 390.69389059187745 474.9161595685521 393.115320692653 463.77505650864464 388.6989972154689 452.63395344873726 384.2826737382849 442.0601831104608 379.6795629484494 431.4864127721843 375.0764521586139 425.54170865748677 365.74961624349 419.5970045427892 356.42278032836606 414.1102528368633 346.70771696315694 408.6235011309375 336.9926535979479 404.0777958536249 325.95246062311537 399.53209057631227 314.91226764828286 396.7431519773353 304.2218990000372 393.95421337835825 293.53153035179156 391.1981119480955 282.8501836709037 388.4420105178328 272.16883699001573 384.1622023154133 261.6498024858418 379.8823941129939 251.1307679816679 373.6279301379584 241.30672190434927 367.3734661629229 231.48267582703068 359.69692989257265 221.75694449162341 352.0203936222224 212.03121315621615 344.2341244476738 203.8211776603392 336.4478552731252 195.61114216446225 326.5786633888098 188.60159048153133 316.70947150449445 181.59203879860038 305.6506996231244 178.2368151969387 294.59192774175443 174.881591595277 282.9452411013753 170.57322291808003 271.2985544609962 166.26485424088304 258.94570763228796 165.98594324175104 246.59286080357973 165.70703224261905 235.68353850529434 170.07586694842047 224.77421620700898 174.44470165422186 215.41278293301227 182.230958848257 206.05134965901556 190.01721604229212 199.92281484436654 199.24131344975837 193.79428002971753 208.46541085722458 189.75934501147935 219.70126773198177 185.7244099932412 230.937124606739 184.26150572897032 243.3953983620053 182.79860146469943 255.8536721172716 182.55865960401815 267.23401971295675 182.3187177433369 278.61436730864193 184.15282749787536 290.23798594482196 185.98693725241387 301.8616045810019 194.6555514411258 308.60426085277834 203.32416562983772 315.34691712455475 214.937651841617 319.0799531841408 226.55113805339627 322.81298924372675 237.72641214685822 322.3339467722791 248.90168624032017 321.85490430083144 261.0807167100071 320.4110452791605 273.259747179694 318.96718625748946 284.8764429002309 316.56267439662247 296.49313862076787 314.1581625357555 308.7262160966303 310.8436974006553 320.95929357249275 307.52923226555515 331.5338743326196 304.6476489069756 342.10845509274645 301.766065548396 353.16181906309214 298.3825988444712 364.21518303343777 294.99913214054635 374.7443992115536 291.4066245401952 385.27361538966943 287.81411693984404 396.6145407310751 284.2677506916249 407.9554660724808 280.7213844434057 420.83669557418284 277.61504667699677 433.71792507588486 274.5087089105878 446.3248440919216 271.4206234949511 458.9317631079584 268.3325380793144 470.4446458877398 265.0209125777045 481.9575286675212 261.70928707609465 494.0705809737956 258.2565354193872 506.18363328007 254.80378376267976 518.075900205745 251.26456756790878 529.9681671314199 247.72535137313778 542.1463809819909 243.96117585021346 554.324594832562 240.19700032728912 565.9588761356271 237.02604053490165 577.5931574386922 233.85508074251422 588.9069572405983 232.67146674763637 600.2207570425045 231.48785275275856 612.0882224332588 231.82262704955855 623.9556878240132 232.15740134635857 635.0019759030517 233.83091007840054 646.0482639820901 235.5044188104425 656.7322843731453 238.02128601335875 667.4163047642004 240.53815321627502 679.0466276370105 244.5686944697721 690.6769505098207 248.5992357232692 701.2012355969839 252.96134564898964 711.7255206841472 257.32345557471007 720.2365837584664 264.36926368812965 728.7476468327854 271.4150718015493 735.1179825482566 281.5952063562815 741.4883182637276 291.7753409110137 742.1893922841598 303.77782366080316 742.8904663045921 315.7803064105927 739.3375455431781 326.3175615376076 735.7846247817639 336.8548166646225 729.4983766732914 346.4072313481566 723.212128564819 355.9596460316907 715.178940573621 364.48284302951316 707.145752582423 373.00604002733564 699.1402653003744 380.62449672946167 691.1347780183257 388.2429534315877 682.6884921732762 396.10299045099885 674.2422063282269 403.96302747040994 665.9427703103083 412.0097378551644 657.6433342923897 420.05644823991884 650.6013801237491 428.6214010555025 643.5594259551084 437.18635387108617 636.0679215298937 446.1149465866996 628.5764171046792 455.043539302313 622.3152783325698 464.1618614268798 616.0541395604605 473.28018355144656 610.4764878062875 483.45562672000074 604.8988360521146 493.631069888555 605.8319942210248 504.77688559317085 606.765152389935 515.9227012977867 607.1366077180968 527.9115894928549 607.5080630462586 539.9004776879231 613.5408276156088 550.2499303950631 619.5735921849589 560.5993831022032 630.3688939619128 565.9594613043703 641.1641957388666 571.3195395065374 652.1826356921815 576.699736886655 663.2010756454965 582.0799342667727 672.6934255936214 587.7695042716018 682.1857755417465 593.4590742764309 692.2381904243857 597.881354417425 702.290605307025 602.3036345584189 712.973896194071 607.4934032434478 723.6571870811171 612.6831719284767 734.5285224435512 616.6487130008194 745.3998578059853 620.6142540731621 756.4622963921679 624.2528095412558 767.5247349783506 627.8913650093494 769.5539720118575 628.480886465481 771.5832090453645 629.0704079216127 772.4224940000162 629.4243924066332 773.2617789546679 629.7783768916535 773.9919575928096 630.3229348841037 774.7221362309514 630.8674928765538 775.300770535827 631.5709746403265 775.8794048407027 632.2744564040994 776.2728645593259 633.0959755460315 776.666324277949 633.9174946879637 776.8517415129867 634.809304476927 777.0371587480244 635.7011142658903 777.0037570410643 636.6113826750488 776.9703553341043 637.5216510842074 776.7200759939245 638.3974732708521 776.4697966537448 639.2732954574967 776.0171859273557 640.0637685949894 775.5645752009668 640.8542417324821 774.9359388450522 641.5134234849315 774.3073024891376 642.1726052373808 773.5391768782395 642.662183930363 772.7710512673412 643.1517626233452 771.9080798980551 643.4432839202213 771.045108528769 643.7348052170976 770.1374473376245 643.8113258863962 769.2297861464799 643.8878465556948 768.3301884445525 643.7449192125209 767.4305907426251 643.601991869347 767.430954032224 643.6020956848047 Z" fill="rgb(17, 24, 39)"></path><path d="M 409.81072830493144 188.99313470114797 Q 409.81072830493144 188.99313470114797 410.8728867233845 191.8361044079066 411.9350451418376 194.67907411466524 413.8802973218618 202.45851370358588 415.825549501886 210.2379532925065 416.19544887020015 218.60880358225 416.5653482385143 226.97965387199352 416.88235093752195 234.5502286908889 417.1993536365296 242.12080350978428 418.57593710281293 250.0101240390719 419.95252056909624 257.89944456835957 420.1911735886233 265.76658487531165 420.4298266081504 273.63372518226373 421.12855004991997 281.50355533163486 421.82727349168954 289.3733854810059 422.05262606330825 296.9507652574697 422.277978634927 304.5281450339334 422.43946598286806 312.3210142933193 422.6009533308091 320.1138835527052 418.9691290229159 327.9388714735792 415.33730471502275 335.76385939445316 416.9854319593226 344.0592725006163 418.6335592036225 352.3546856067794 411.5800562359434 359.2808111164343 404.52655326826425 366.2069366260892 396.2081042600651 368.2692013829879 387.889655251866 370.3314661398866 380.199868785179 371.0137637429793 372.510082318492 371.696061346072 364.69488966211185 372.3434321984778 356.8796970057317 372.9908030508835 349.17928917029224 373.0608545066543 341.47888133485276 373.13090596242506 332.02525366247846 369.31544388322186 322.57162599010417 365.4999818040186 315.4002729170545 361.4980641323792 308.22891984400485 357.4961464607398 300.8618718627988 351.381463181473 293.4948238815928 345.26677990220617 285.56549787109583 341.14231925210737 277.63617186059884 337.0178586020086 266.47221171294063 333.50439356580284 255.30825156528243 329.99092852959717 247.8854102017928 327.6018567560161 240.4625688383032 325.2127849824351 232.24608953606892 326.6368391940847 224.02961023383463 328.06089340573425 214.314587608801 322.7074028000428 204.59956498376738 317.35391219435144 200.47503589739748 309.74786463153237 196.35050681102757 302.14181706871324 195.75653080854283 294.078588710896 195.16255480605813 286.01536035307873 195.690521475739 278.26411443542133 196.21848814541983 270.512868517764 197.92742619170974 261.88251289533343 199.63636423799966 253.25215727290282 203.5484958999175 246.07227824699055 207.46062756183537 238.89239922107825 213.87565667396035 234.32635348193128 220.29068578608536 229.76030774278428 228.38731620749815 225.6302282433138 236.48394662891093 221.5001487438433 243.83652358524841 218.10665320337142 251.1891005415859 214.71315766289956 259.04607825533617 211.5278116570401 266.9030559690864 208.34246565118065 275.0271846972338 206.4456946829987 283.15131342538115 204.54892371481674 290.54227804930116 202.9787185728813 297.9332426732212 201.40851343094582 306.2584397988806 199.8841370503349 314.58363692454003 198.359760669724 322.64030773777836 197.81892214409152 330.69697855101674 197.27808361845905 338.9667239368739 196.0889864649422 347.236469322731 194.89988931142537 354.5938743621749 193.40841270155573 361.9512794016188 191.9169360916861 371.5523047279874 191.8815059255461 381.153330054356 191.84607575940612 388.5635579662294 199.16805574927452 395.97378587810283 206.49003573914294 396.2845728562882 215.30262020022298 396.5953598344736 224.11520466130298 395.83405464734074 232.4022357042044 395.0727494602079 240.68926674710582 395.81549233494144 249.24443648501193 396.558235209675 257.79960622291804 399.2123905557637 266.95819630810365 401.8665459018525 276.1167863932892 403.05745469615147 284.21950628347736 404.2483634904505 292.3222261736655 402.63890847317793 302.03409619728063 401.02945345590535 311.7459662208958 396.5197191688053 318.2105500766143 392.0099848817053 324.6751339323328 388.1661043063789 333.08088084035785 384.3222237310524 341.48662774838294 377.49639869118204 345.8041374951607 370.67057365131166 350.12164724193843 360.7303820977337 349.8282453327731 350.7901905441558 349.53484342360787 343.4741940908531 344.0520231024258 336.1581976375503 338.5692027812437 329.91768824748505 332.7930313553027 323.6771788574198 327.0168599293617 317.3608618989241 318.58573120238805 311.0445449404284 310.1546024754144 309.92003373878515 302.231388478519 308.7955225371419 294.30817448162367 313.180383206368 282.0513339520238 317.56524387559404 269.794493422424 319.8394533056211 278.18076404012885 322.1136627356482 286.5670346578337 318.3232869689539 279.1822337702829 314.5329112022596 271.79743288273204 315.38105768181055 263.2639091585113 316.2292041613615 254.7303854342906 316.9695200483052 247.11341251112853 317.70983593524886 239.49643958796645 323.1232933244552 247.24350703753464 328.53675071366143 254.99057448710286 336.7743982617767 253.35018301345107 345.0120458098919 251.70979153979928 350.7517129123923 246.48304541171072 356.4913800148927 241.25629928362216 355.4192932364946 249.1657622506906 354.3472064580965 257.075225217759 353.2009495087131 265.415382901208 352.05469255932974 273.7555405846569 351.81409614594224 281.35941406840345 351.5734997325548 288.96328755215 351.58376695041784 297.178011568516 351.5940341682808 305.3927355848821 350.47606060212433 313.8884510453819 349.3580870359678 322.38416650588175 347.84992995271705 325.82793530063384 346.3417728694663 329.2717040953859 344.7181915373006 331.24916364250737 343.09461020513487 333.22662318962875 341.0449583702999 334.75805714465787 338.995306535465 336.28949109968704 336.6387100589038 337.2858924492036 334.28211358234273 338.2822937987201 331.75553796199745 338.68575164947435 329.2289623416521 339.0892095002286 326.67925227128774 338.8762748629784 324.1295422009233 338.6633402257282 321.704886949627 337.84638887159514 319.2802316983307 337.0294375174621 317.1215523432297 335.6559506975327 314.9628729881288 334.2824638776034 313.1956320747669 332.4322687103851 311.4283911614049 330.5820735431667 310.1553008146999 328.3627034587091 308.882210467995 326.14333337425154 308.1772627587135 323.68377826614005 307.4723150494319 321.2242231580286 307.37648157155905 318.66743248470834 307.2806480936862 316.1106418113881 307.79949869345864 313.60521636692283 308.3183492932311 311.0997909224575 309.4217283494121 308.7913461513963 310.5251074055931 306.4829013803351 310.95070996367315 317.9135467774639 311.3763125217533 329.3441921745928 309.17182582611326 321.5976962730962 306.9673391304733 313.8512003715995 305.0452783773079 306.05059915225877 303.1232176241425 298.24999793291806 302.8302354411888 290.33542260584954 302.53725325823507 282.42084727878097 303.8796407097292 273.2565086141837 305.22202816122336 264.09216994958643 309.6833771715641 256.860767061099 314.1447261819048 249.62936417261162 320.93126783093226 245.981089830397 327.7178094799598 242.33281548818238 337.59136354580886 242.9924240576749 347.46491761165794 243.65203262716742 354.8101871297478 248.45023807968576 362.1554566478377 253.2484435322041 367.9633882314274 258.247829144374 373.7713198150171 263.2472147565439 376.3740516638769 270.35726243238867 378.9767835127367 277.4673101082334 379.25342201092315 286.1891733478475 379.5300605091096 294.9110365874615 379.5409268097176 299.06605439393746 379.5517931103255 303.2210722004134 379.24457361358117 305.7661926110553 378.93735411683684 308.3113130216972 378.0299562351861 310.7089474409157 377.12255835353534 313.1065818601342 375.6677200944936 315.21737966283206 374.2128818354518 317.32817746552996 372.29515846698985 319.0294589842389 370.3774350985279 320.7307405029478 368.10828479292456 321.92362717586616 365.8391344873213 323.11651384878445 363.3504403669539 323.7316750464346 360.86174624658645 324.3468362440847 358.2981513306614 324.348518768756 355.73455641473646 324.3502012934273 353.2450569602174 323.7383073567068 350.75555750569845 323.1264134199863 348.48484333785075 321.936506326226 346.214129170003 320.7465992324656 344.29417430295086 319.04783643786226 342.37421943589874 317.3490736432589 340.916611736724 315.24018732125097 339.4590040375492 313.131300999243 338.54845973421334 310.7348597219511 337.6379154308774 308.3384184446593 337.32735540107194 305.7937034917161 337.0167953712664 303.24898853877283 337.0984139335774 294.44907143573244 337.1800324958883 285.64915433269204 334.206027250389 278.578640799601 331.2320220048897 271.50812726651 323.23825465953144 274.48738297228476 315.2444873141732 277.4666386780595 310.63525854904685 284.59356373664133 306.0260297839204 291.72048879522316 303.68803818512396 292.77287827787165 301.3500465863275 293.82526776052015 298.82813593012634 294.2875393055792 296.30622527392524 294.7498108506382 293.74696912614934 294.5950972141892 291.18771297837344 294.4403835777402 288.7398554265776 293.67767672360276 286.2919978747818 292.9149698694653 284.0978085148886 291.5885983558376 281.9036191549953 290.26222684220977 280.09062437569514 288.449279443783 278.27762959639495 286.63633204535626 276.951200739444 284.442177350108 275.62477188249306 282.24802265485977 274.8620010553793 279.8001850367698 274.0992302282656 277.35234741867987 273.94444970729955 274.79309531512274 273.78966918633347 272.23384321156567 274.25187482266597 269.7119204750461 274.71408045899847 267.1899977385265 275.76640883932924 264.85197863698295 276.81873721966 262.5139595354394 278.40002696908084 260.495729848905 279.9813167185016 258.4775001623706 281.9996632024795 256.8963594950528 284.0180096864574 255.31521882773507 279.94375204778146 268.8439085354604 275.86949440910547 282.3725982431858 275.31337910986343 273.32669065751406 274.7572638106214 264.28078307184234 276.11526911469457 258.7611385946289 277.4732744187678 253.2414941174155 277.8249819667925 250.7023473319333 278.17668951481727 248.16320054645112 279.1258529972441 245.78201317852114 280.07501647967104 243.40082581059116 281.56647047030515 241.31599258191704 283.05792446093926 239.23115935324293 285.00498558376927 237.56385086903072 286.9520467065993 235.89654238481853 289.241551677684 234.7436626925088 291.5310566487688 233.59078300019905 294.02993933161696 233.01933752167665 296.5288220144651 232.44789204315424 299.09184723014005 232.49109321648012 301.65487244581493 232.53429438980604 304.13307704835836 233.18963136075672 306.61128165090173 233.84496833170743 308.8606322723758 235.0743528847404 311.1099828938499 236.30373743777335 312.9997471704494 238.03571768490394 314.8895114470489 239.7676979320345 316.3098561902276 241.90161109992272 317.7302009334063 244.03552426781093 318.59857563995604 246.44734722287762 319.4669503465058 248.85917017794435 319.7328850376815 251.40872765672205 319.99881972885726 253.95828513549975 321.17300623338417 262.55192966300547 322.34719273791103 271.1455741905111 321.891558188212 282.3095500600997 321.435923638513 293.4735259296882 309.89452826212823 290.45246962926586 298.3531328857435 287.4314133288435 289.7954041355905 291.2318586264405 281.23767538543746 295.03230392403754 272.4239698360235 294.1689486564799 263.6102642866096 293.3055933889223 260.5545633756738 291.9488691871439 257.498862464738 290.59214498536545 255.00114036814114 290.2641154000604 252.5034182715443 289.9360858147554 250.1567851058448 289.0198260992256 247.8101519401453 288.1035663836958 245.75099413518973 286.6523295956581 243.69183633023414 285.20109280762034 242.0398322343956 283.29922489738146 240.38782813855704 281.39735698714264 239.23899230750476 279.15539460700467 238.09015647645245 276.9134322268667 237.511259302665 274.4616783357013 236.93236212887757 272.00992444453595 236.95704914329485 269.4908750936929 236.9817361577121 266.9718257428499 237.60857254989628 264.5318881989572 238.23540894208045 262.09195065506447 239.427962951466 259.87293420281316 240.6205169608515 257.65391775056185 242.30947729238096 255.78479173041674 243.99843762391046 253.91566571027164 246.08564182375994 252.50506381434417 248.17284602360942 251.09446191841667 250.5369856856168 250.2243683951749 252.90112534762417 249.35427487193317 255.40479656355495 249.07525959782913 257.9084677794857 248.79624432372512 267.2668402038521 257.22794131865425 276.62521262821843 265.65963831358334 279.8312929575265 257.6436519653223 283.03737328683457 249.6276656170613 281.06388103521056 258.99173982949134 279.0903887835865 268.35581404192135 292.80855764810264 273.1738008968457 306.5267265126188 277.99178775177006 307.22759522373553 285.97272011537905 307.92846393485223 293.95365247898803 300.5078730247378 299.112642847924 293.0872821146234 304.27163321686 284.94715975909344 305.9146043701802 276.8070374035634 307.5575755235004 269.17772356853834 305.2769801039241 261.54840973351327 302.9963846843478 255.23089078986266 298.32790787301155 248.91337184621207 293.6594310616754 242.40482013858255 287.7693918133151 235.89626843095303 281.87935256495484 230.45151416793072 274.18892321336824 225.0067599049084 266.49849386178164 224.22514642845292 260.30016737121747 223.44353295199744 254.1018408806533 223.7152036887804 251.56365128447345 223.98687442556337 249.0254616882936 224.85809789082063 246.62604903329554 225.7293213560779 244.22663637829746 227.14946200107445 242.10545464072555 228.56960264607102 239.98427290315365 230.45612182979465 238.26460526525892 232.3426410135183 236.54493762736416 234.58589415237327 235.32673125305925 236.82914729122822 234.10852487875434 239.2987564073855 233.46258197975104 241.76836552354274 232.81663908074773 244.32079681913712 232.78050188868562 246.87322811473152 232.7443646966235 249.36013416293764 233.32013350680313 251.84704021114374 233.89590231698276 254.12388191559305 235.0501134191041 256.40072362004236 236.20432452122543 258.3351708338953 237.8698951118028 260.2696180477483 239.53546570238015 261.7492406080462 241.6155927404327 263.22886316834405 243.69571977848528 264.16766534236257 246.06950618282707 265.1064675163811 248.44329258716886 265.44988607765686 250.97277378044765 265.7933046389326 253.50225497372642 268.4975446688983 261.44115034663906 271.2017846988639 269.3800457195517 262.17938628747925 267.20723368089773 253.15698787609466 265.03442164224384 257.1551630948826 258.1090748816705 261.15333831367053 251.18372812109718 269.34281034782634 245.28058888631347 277.53228238198216 239.37744965152976 285.08862555577724 233.6334249414685 292.6449687295723 227.88940023140722 302.300136729781 225.73006005825874 311.9553047299896 223.57071988511024 319.4602696146691 221.1653656555378 326.9652344993485 218.7600114259654 334.78014012841845 218.61492556839045 342.5950457574883 218.46983971081553 350.89722681142973 218.49585970792555 359.1994078653712 218.52187970503556 360.0104539523634 217.88062988340704 360.8215000393555 217.23938006177852 364.2194928701378 216.93306628129048 367.6174857009201 216.62675250080244 370.93540262021435 217.42149190892684 374.2533195395086 218.2162313170512 377.1437737700196 220.0288144879666 380.0342280005307 221.841397658882 382.1945882213182 224.48204665611803 384.35494844210575 227.12269565335404 385.55902436777365 230.3149338298365 386.7631002934415 233.5071720063189 386.88482485672705 236.916771182301 387.0065494200126 240.3263703582831 386.03317802700775 243.59634459999276 385.0598066340029 246.86631884170242 383.0932515265003 249.65430098284327 381.1266964189977 252.4422831239841 378.372856435873 254.4563706984229 375.6190164527483 256.47045827286166 372.36621936717785 257.49977577988716 369.11342228160737 258.52909328691266 365.7022368071054 258.46587091182585 362.29105133260344 258.40264853673904 359.07862948881586 257.25350567890064 355.8662076450282 256.1043628210622 353.18889084699657 253.98961504103207 350.5115740489649 251.87486726100195 348.6496780721861 249.01592920958853 346.78778209540724 246.1569911581751 345.93624794014283 242.85319440404766 345.0847137848784 239.5493976499202 345.3326973019677 236.14665058535357 345.580680819057 232.74390352078694 346.9022180687996 229.59847466167923 348.22375531854215 226.4530458025715 350.4804810020379 223.89426238078386 352.7372066855337 221.3354789589962 355.69284102800293 219.63124627424298 358.6484753704722 217.9270135894898 361.99356267604674 217.25576525373845 365.3386499816213 216.58451691798712 368.7229587263902 217.01653280918316 372.107267471159 217.44854870037918 375.1764596361741 218.9385966406732 378.24565180118924 220.42864458096727 380.6783821565855 222.82071615767612 383.1111125119818 225.21278773438496 384.6526735473708 228.2564324219816 386.1942345827598 231.30007710957824 386.68322445080366 234.67662450582714 387.1722143188475 238.05317190207606 386.55743565128137 241.40909660326798 385.94265698371515 244.76502130445994 384.28847726931883 247.74895710850208 382.6342975549225 250.73289291254423 380.1139098464544 253.03242095307075 377.5935221379863 255.3319489935973 374.4708116938408 256.7063080777487 371.34810124969533 258.08066716190007 371.3511643462508 258.0798776668033 371.35422744280623 258.07908817170664 369.0356847519635 258.8440789326311 366.7171420611208 259.6090696935555 356.285625457754 260.1674557790808 345.8541088543873 260.72584186460614 337.82498662371444 261.3868497920995 329.7958643930416 262.04785771959286 321.71610115223285 261.5061236556162 313.6363379114241 260.9643895916395 306.9018129706953 267.6981258906999 300.16728802996647 274.43186218976024 293.0588770889253 280.0027032987027 285.95046614788424 285.57354440764516 278.4830990669345 291.525207653612 271.01573198598476 297.4768708995788 260.66865952135663 301.336310853826 250.3215870567285 305.19575080807317 240.86074040909534 297.44982047748124 231.39989376146218 289.70389014688936 230.60802450080007 281.02559916721816 229.816155240138 272.3473081875469 226.62985919158976 263.22563327688886 223.44356314304153 254.10395836623087 223.71498005950696 251.56574161566834 223.98639697597235 249.02752486510582 224.8573804956084 246.62802509975842 225.72836401524444 244.22852533441105 227.1482925349669 242.1072015933808 228.56822105468936 239.98587785235054 230.4545682622169 238.2660215711361 232.34091546974443 236.54616528992162 234.58404677674588 235.32773459639424 236.82717808374736 234.10930390286683 239.2967225932668 233.46311404618206 241.7662671027862 232.81692418949726 244.31869477189923 232.78053175448667 246.87112244101226 232.74413931947612 249.35808605366475 233.3196594361725 251.84504966631727 233.89517955286885 254.1220067804924 235.04916296504905 256.39896389466753 236.20314637722927 258.33357765590705 237.86852351475773 260.26819141714657 239.5339006522862 261.7480219827498 241.61387971768235 263.227852548353 243.6938587830785 264.16689209631755 246.0675512953341 265.1059316442821 248.4412438075897 265.44960315195965 250.97069064636503 265.79327465963723 253.50013748514033 266.7582671775998 253.7493690338449 267.7232596955623 253.99860058254953 273.8348514312278 259.03343257331 279.9464431668932 264.06826456407043 275.39163924438196 270.78168161720475 270.8368353218707 277.49509867033913 272.46534970348455 269.89541234214414 274.0938640850984 262.29572601394915 279.13521964060175 256.42406220407213 284.1765751961051 250.55239839419505 299.05963809615656 256.0667202425926 313.94270099620803 261.5810420909902 311.6335414442949 271.84938496754216 309.32438189238184 282.1177278440942 302.9557650853394 287.29811474296315 296.587148278297 292.4785016418321 288.35142355207495 296.13116969006245 280.115698825853 299.7838377382928 271.3441143295655 300.20636514803084 262.5725298332781 300.6288925577689 254.63809058486586 296.83019781073244 246.70365133645362 293.03150306369605 242.90505935948235 283.3781157499609 239.10646738251108 273.7247284362258 248.30370982216073 282.1584468464387 257.50095226181037 290.59216525665164 255.00319737474365 290.264385445196 252.50544248767693 289.9366056337404 250.15871770773919 289.02058058610805 247.81199292780147 288.1045555384757 245.75269000946312 286.6535246734743 243.69338709112478 285.2024938084729 242.04119281675554 283.30079110815274 240.3889985423863 281.39908840783255 239.23993852084055 279.1572409224873 238.0908784992948 276.91539343714203 237.51173615301315 274.4636974479527 236.93259380673146 272.0120014587634 236.95702891609062 269.4929496518141 236.9814640254498 266.9738978448649 237.6080564207458 264.5338976295328 238.2346488160418 262.0938974142007 239.42698091781972 259.87476171764365 240.6193130195976 257.6556260210867 242.30808643008058 255.78633111425432 243.99685984056356 253.917036207422 246.0839229697877 252.50622559812788 248.1709860990118 251.09541498883377 250.5350387398463 250.22508505597668 252.8990913806808 249.3547551231196 255.40273468256584 249.07548948328946 257.9063779844509 248.79622384345933 259.1678089615142 248.81712992552207 260.4292399385775 248.83803600758478 267.85609232837226 250.61541429929585 275.28294471816696 252.39279259100692 283.8428655292457 257.93671128196456 292.4027863403245 263.48062997292226 298.75831042630034 268.7996920401581 305.1138345122762 274.118754107394 311.479988199434 281.48703525475446 317.8461418865918 288.85531640211485 318.3625322187677 300.6176712639824 318.87892255094357 312.38002612584995 309.0676860230377 317.3161576412307 299.2564494951318 322.2522891566115 289.1351230819198 314.34869178024474 279.01379666870776 306.44509440387793 279.5866153944353 298.0065321462247 280.15943412016287 289.5679698885715 280.2174542721528 280.9861051690617 280.2754744241427 272.4042404495519 278.8743566079937 262.82393042390396 277.4732387918448 253.24362039825607 277.82469242343285 250.70443845471488 278.1761460550209 248.1652565111737 279.1250714139656 245.78397423880156 280.0739967729103 243.40269196642942 281.5652422727646 241.31770960278067 283.0564877726189 239.23272723913192 285.00338215486545 237.5652240571443 286.950276537112 235.8977208751567 289.23966620878025 234.74461223811463 291.5290558804484 233.59150360107256 294.02788140625444 233.0198082371395 296.5267069320604 232.44811287320647 299.0897364550375 232.4910577437952 301.6527659780146 232.53400261438395 304.13103610186397 233.18909176159812 306.6093062257133 233.8441809088123 308.85877977439577 235.07334052063658 311.1082533230782 236.30250013246084 312.9981907882533 238.03429139450418 314.8881282534284 239.7660826565475 316.3086863808218 241.89985377929207 317.72924450821523 244.03362490203662 318.5978603927182 246.4453610075737 319.4664762772212 248.8570971131108 319.7326659228147 251.40662798567166 319.9988555684082 253.9561588582325 316.93707913254843 259.0316324996763 313.8753026966887 264.10710614112 309.9515763170299 277.9132471766583 306.0278499373711 291.7193882121965 303.68996358921265 292.7720114887426 301.35207724105425 293.82463476528864 298.8302128246171 294.28715849910145 296.30834840818 294.7496822329143 293.74907680183674 294.59522452285324 291.18980519549353 294.44076681279216 288.74187138525167 293.678304748223 286.29393757500986 292.9158426836539 284.09961558893644 291.58969059559365 281.90529360286297 290.2635385075333 280.09211753788827 288.4507724176489 278.2789414729135 286.6380063277645 276.95229320712554 284.44398428637254 275.6256449413376 282.24996224498057 274.86262933427633 279.8022009162124 274.099613727215 277.35443958744423 273.94457728181294 274.79520297473545 273.7895408364108 272.23596636202666 274.25149427815904 269.7139974175531 274.7134477199073 267.1920284730796 275.7655422930667 264.8539041503883 276.81763686622605 262.515779827697 278.39872478477207 260.49739202227903 279.9798127033181 258.4790042168611 281.9980010631378 256.897661722801 284.0161894229575 255.31631922874084 281.10238434152853 258.7672568491355 278.1885792600996 262.2181944695301 283.6490869141054 254.73408187194764 289.1095945681112 247.2499692743652 297.4454965601682 241.60156054968326 305.7813985522251 235.95315182500127 314.32436866476087 233.8794853208052 322.8673387772966 231.80581881660913 330.3182395223259 232.98838007698467 337.76914026735517 234.1709413373602 346.07462333278704 235.86152890352182 354.3801063982189 237.55211646968343 361.80510797939036 245.64937891613278 369.2301095605618 253.7466413625821 372.63156019973746 262.03229153729325 376.0330108389131 270.31794171200437 377.7111549420108 277.840603843885 379.3892990451085 285.3632659757656 379.47054527347103 294.2911057132203 379.5517915018336 303.21894545067494 379.244826518666 305.7640965705408 378.9378615354984 308.3092476904067 378.03070342182616 310.7069728374251 377.1235453081539 313.1046979844435 375.66891813616627 315.215641260413 374.21429096417864 317.3265845363825 372.2967377334569 319.0280578189215 370.37918450273514 320.7295311014606 368.11015349714467 321.9226446834447 365.8411224915542 323.1157582654288 363.3524898997499 323.7311683294147 360.86385730794564 324.34657839340065 358.3002625730911 324.3485172775547 355.73666783823654 324.35045616170873 353.2471072067715 323.7388111779928 350.7575465753064 323.1271661942768 348.48671342810303 321.93748617788236 346.2158802808997 320.7478061614879 344.29575554716814 319.0492353708648 342.3756308134366 317.35066458024164 340.91781223291804 315.2419240295478 339.4599936523995 313.13318347885394 338.549209709489 310.7368332679745 337.63842576657845 308.340483057095 337.3276112668309 305.7957991728783 337.01679676708335 303.25111528866154 337.0225663999612 301.73744071949466 337.02833603283904 300.2237661503278 335.0163849353129 291.93177243176603 333.0044338377867 283.6397787132043 339.3772895844344 279.326726832905 345.75014533108214 275.0136749526058 345.111494677668 282.78473579748913 344.47284402425385 290.5557966423725 344.84448772334906 298.33033955013735 345.21613142244433 306.1048824579022 345.77952177647916 317.6873978030392 346.342912130514 329.2699131481762 344.71952855242057 331.2475350435433 343.0961449743271 333.2251569389103 341.04664629313567 334.7567958514654 338.99714761194423 336.28843476402056 336.6406507873009 337.28507176820233 334.28415396265757 338.2817087723841 331.7576187007301 338.6854192786827 329.23108343880267 339.08912978498125 326.6813520877231 338.8764501198023 324.1316207366436 338.6637704546234 321.70688380233526 337.84706157009987 319.282146868027 337.0303526855763 317.1233301750377 335.65708174044954 314.9645134820484 334.2838107953228 313.1970875580062 332.4337923614464 311.42966163396403 330.5837739275701 310.1563493566165 328.36453116324384 308.8830370792689 326.14528839891756 308.17784341800166 323.68580379787466 307.4726497567345 321.2263191968318 307.3765606002739 318.6695381196433 307.28047144381327 316.11275704245475 307.79907149844746 313.6072797254567 308.31767155308165 311.1018024084586 309.420819759269 308.7932473110342 310.5239679654564 306.4846922136098 309.9401807188657 309.2857354270035 309.35639347227504 312.08677864039726 309.32507613289215 304.48649192893254 309.2937587935093 296.88620521746776 309.32251615426173 288.4392858465832 309.35127351501416 279.9923664756986 309.89870680375805 272.11156548788585 310.446140092502 264.2307645000731 311.2453878812619 255.6628892360048 312.04463567002176 247.09501397193642 313.08664665411277 239.66505446523752 314.1286576382037 232.23509495853858 321.26573755680545 225.52049231154928 328.4028174754071 218.80588966456 337.6027394834075 217.32012031076889 346.80266149140783 215.83435095697777 352.32292684159137 223.26827656032174 357.8431921917749 230.70220216366567 359.25705304289966 240.62402959325198 360.67091389402447 250.5458570228383 357.9411767023411 257.56062801943887 355.2114395106578 264.57539901603946 356.4158774256588 273.9877619092385 357.6203153406598 283.4001248024375 357.64711231128706 291.13585973867987 357.6739092819144 298.8715946749222 363.6611832862917 304.63593638672114 369.64845729066894 310.40027809852006 361.6226491497002 313.2632921370754 353.5968410087314 316.1263061756307 358.1158170405969 308.5564632341641 362.63479307246234 300.9866202926975 361.7725420648159 293.2087890286912 360.9102910571695 285.43095776468493 359.4181608565202 276.8168174550675 357.9260306558709 268.20267714545014 354.58123559079877 258.02846633660226 351.2364405257266 247.85425552775436 352.3446585587602 240.03109091574444 353.45287659179377 232.20792630373452 353.5953639649616 223.93461298971536 353.7378513381294 215.6612996756962 360.48931767461477 221.47453717579754 367.2407840111002 227.2877746758989 377.12574722645445 225.84200996733802 387.01071044180867 224.39624525877716 379.030165948005 227.09639524064204 371.0496214542013 229.7965452225069 362.2184912211761 233.17714156040012 353.3873609881509 236.55773789829337 344.23384329101464 238.22320761803644 335.08032559387846 239.8886773377795 327.58317151479775 240.20734744218868 320.086017435717 240.5260175465978 311.51136052102424 242.53417080288705 302.93670360633143 244.54232405917628 295.32773031095473 243.82510345775853 287.71875701557803 243.10788285634078 277.544478748217 248.89149512082673 267.370200480856 254.6751073853127 258.9041220951107 256.12590191596786 250.43804370936545 257.576696446623 244.97984148769572 262.9320035574495 239.521639266026 268.287310668276 235.5050734708293 274.8209634423549 231.48850767563263 281.35461621643384 235.36436258853854 289.43030074304187 239.24021750144442 297.5059852696499 233.01717195574687 290.23841482269194 226.79412641004933 282.970844375734 233.88792285704392 285.6064494216124 240.98171930403853 288.2420544674908 248.9550550416722 288.95491996463056 256.92839077930586 289.66778546177034 264.7997008517533 292.37875181408856 272.67101092420074 295.0897181664067 280.12292020343386 296.8587957043082 287.5748294826669 298.62787324220966 295.8372537169205 300.85739157843 304.09967795117404 303.08690991465033 311.77067178534816 308.780087239552 319.44166561952227 314.47326456445364 326.18165900093663 319.34476250105996 332.921652382351 324.2162604376663 341.0001073171808 327.7323420453794 349.07856225201056 331.2484236530926 356.8476259509416 332.5138398212935 364.6166896498727 333.77925598949446 372.1582546736778 334.4203839190611 379.69981969748284 335.0615118486278 387.779932565919 330.8645034431472 395.86004543435524 326.6674950376666 388.73425141337145 333.98603912171137 381.6084573923877 341.30458320575616 381.75733966284855 333.32150241304 381.9062219333094 325.33842162032386 382.6249467252162 317.1623438002584 383.34367151712297 308.9862659801929 384.0355521018611 301.1270418477166 384.7274326865992 293.2678177152403 383.9239467609374 282.34987047392457 383.1204608352756 271.4319232326088 383.22047003051057 262.9385749707543 383.32047922574554 254.44522670889972 382.6912055014822 245.49660954895882 382.0619317772189 236.5479923890179 382.3955033428192 228.6913700885243 382.7290749084195 220.8347477880307 382.38007686449214 212.75483192335267 382.03107882056474 204.67491605867463 381.17084420312915 201.7507417529821 380.31060958569356 198.82656744728953 379.93658613805155 196.9901122912264 379.56256269040955 195.15365713516326 379.63891457462273 193.28105694574907 379.71526645883586 191.40845675633489 380.2375560998064 189.60854714456218 380.7598457407769 187.80863753278945 381.69771764003184 186.1860293298628 382.6355895392868 184.56342112693616 383.93453453797576 183.2124203978476 385.2334795366648 181.86141966875908 386.8180028904334 180.86054663935977 388.4025262442019 179.85967360996042 390.1805353812805 179.26709906774482 391.958544518359 178.67452452552925 393.8267014641612 178.52468893073294 395.6948584099634 178.37485333593662 397.5445857950242 178.67646514036917 399.394313180085 178.97807694480173 401.11810476187566 179.71360645621832 402.84189634366624 180.44913596763493 404.339565274461 181.57583417627336 405.83723420525575 182.70253238491176 407.02173589642916 184.15491553794826 408.2062375876026 185.60729869098475 409.0087287452101 187.3009542113249 409.81121990281764 188.99460973166504 409.8109741038745 188.9938722164065 Z" fill="rgb(17, 24, 39)"></path><path d="M 400.52462440197326 192.79542541503906 Q 400.52462440197326 192.79542541503906 400.6362956959671 195.99939479827881 400.74796698996096 199.20336418151857 401.1305674397477 206.73140709701576 401.5131678895345 214.25945001251296 401.87500144507993 222.05751445062867 402.2368350006254 229.85557888874436 402.5466278415235 237.65200105657166 402.85642068242163 245.44842322439897 403.13501169376525 253.53484472275858 403.4136027051088 261.62126622111816 403.6470583331802 269.9700235314385 403.88051396125167 278.3187808417589 404.0669675687136 285.8421294909062 404.25342117617555 293.3654781400535 399.5995068791505 286.07421910792675 394.94559258212547 278.78296007579996 397.50599657294663 280.55448389167236 400.06640056376773 282.32600770754476 401.927099435884 284.82235803026015 403.78779830800016 287.31870835297553 404.75397639832414 290.2785166447731 405.7201544886481 293.2383249365707 405.69065269607665 296.35169848798574 405.66115090350524 299.4650720394008 404.6390580735083 302.4060398177494 403.6169652435114 305.347007596098 401.709294765196 307.8076494986469 399.80162428688055 310.2682914011959 397.2081097629024 311.9909775712019 394.61459523892415 313.7136637412079 391.6067783245651 314.51802848192636 388.59896141020596 315.32239322264485 385.4917613303859 315.1242193333909 382.3845612505658 314.92604544413695 379.5033026738631 313.7460817834283 376.6220440971604 312.5661181227197 374.2683955571343 310.52790719731263 371.91474701710814 308.4896962719056 370.3351361372021 305.8066393037258 368.7555252572961 303.1235823355459 368.11533771361314 300.07659609741995 367.47515016993026 297.029609859294 367.8414137672871 293.93771461468 368.207677364644 290.8458193700659 369.54204420771316 288.0327373672559 370.87641105078234 285.2196553644459 373.03917257885587 282.97991703171573 375.2019341069294 280.7401786989856 377.9666486171044 279.3082852310056 380.73136312727934 277.8763917630256 383.80856428052664 277.4022627838764 386.885765433774 276.9281338047272 389.95326945704653 277.4614107436837 393.020773480319 277.9946876826402 395.7574118926376 279.47953630342215 398.4940503049562 280.96438492420407 400.61329634214883 283.2453411842537 402.7325423793414 285.5262974443032 404.01251042188727 288.36454462107923 405.29247846443315 291.20279179785524 405.599155520399 294.3011646627248 405.9058325763649 297.39953752759436 405.2071094770362 300.43363562371457 404.50838637770755 303.46773371983477 402.8774196160291 306.1198861756178 401.2464528543506 308.7720386314008 398.8540050808034 310.7645643846258 396.46155730725627 312.75709013785087 393.5581184352757 313.88137121617956 390.65467956329513 315.00565229450825 387.54424040921094 315.14397617225825 384.43380125512675 315.2823000500082 381.44202561944775 314.42018418066505 378.45024998376874 313.5580683113219 378.45285811690593 313.55930546202603 378.4554662500431 313.5605426127302 372.13187580841816 303.4630103763918 365.8082853667932 293.3654781400535 365.99473897425514 285.8421294909062 366.1811925817171 278.3187808417589 366.41464820978854 269.9700235314385 366.64810383785994 261.62126622111816 366.9266948492035 253.53484472275858 367.2052858605471 245.44842322439897 367.51507870144525 237.65200105657166 367.8248715423434 229.85557888874436 368.1867050978888 222.05751445062867 368.54853865343426 214.25945001251296 368.931139103221 206.73140709701576 369.3137395530078 199.20336418151857 369.4254108470017 195.99939479827881 369.5370821409955 192.79542541503906 369.7622068175144 190.9414164900789 369.98733149403336 189.08740756511875 370.6496212668134 187.3411537259875 371.3119110395935 185.59489988685627 372.37287359592324 184.05789348873162 373.4338361522529 182.520887090607 374.83180829850926 181.28245901756392 376.22978044476554 180.04403094452084 377.88351197412464 179.1761586943519 379.53724350348375 178.30828644418293 381.35061946175904 177.8614107928447 383.16399542003427 177.41453514150646 385.03162231132967 177.4146285228511 386.899249202625 177.41472190419574 388.71258046426834 177.86177889089512 390.52591172591167 178.3088358775945 392.17955645977725 179.17687349657677 393.83320119364276 180.04491111555902 395.2310494901021 181.28347897962436 396.6288977865615 182.52204684368968 397.68970663694677 184.05915933038472 398.7505154873321 185.59627181707978 399.41263063141713 187.34259187645694 400.07474577550215 189.08891193583406 400.2996850500033 190.9429433639918 400.52462432450443 192.7969747921495 400.52462436323884 192.7962001035943 Z" fill="rgb(17, 24, 39)"></path><path d="M 419.3896222902037 195.6224466827872 Q 419.3896222902037 195.6224466827872 419.1773513432629 198.51798522001684 418.9650803963221 201.41352375724645 419.20155171361637 208.95128508661594 419.43802303091064 216.48904641598546 419.79730015514156 224.29002193311487 420.1565772793725 232.0909974502443 420.46774930515585 239.8919694338195 420.77892133093917 247.69294141739468 422.17960694208284 255.48752340374176 423.58029255322646 263.2821053900889 422.2135903246083 272.49359902553033 420.84688809599004 281.70509266097173 422.11989591777285 289.2163481096062 423.3929037395556 296.72760355824073 424.0387367143776 304.54702367980207 424.68456968919963 312.3664438013634 424.91609102723555 320.1489305867646 425.1476123652715 327.9314173721658 425.27385936561984 335.732427062671 425.4001063659681 343.53343675317615 421.6647491327495 353.25053498559845 417.92939189953086 362.96763321802075 420.5916965505021 360.0609187806197 423.2540012014733 357.1542043432187 422.34095606974665 360.333555791976 421.42791093802003 363.5129072407333 419.547460888912 366.23427356302335 417.66701083980394 368.9556398853134 415.0160394898467 370.9340933088215 412.3650681398895 372.91254673232964 409.2211328892121 373.94094266135346 406.07719763853464 374.96933859037733 402.7694693378013 374.94000369967796 399.4617410370679 374.9106688089786 396.3365397125208 373.8266744693559 393.2113383879737 372.74268012973323 390.595873443266 370.71752083469244 387.9804084985583 368.69236153965164 386.1485198038166 365.93807200197364 384.3166311090749 363.1837824642957 383.46011789421027 359.9887375256372 382.60360467934566 356.7936925869787 382.812144104052 353.4924142958272 383.02068352875835 350.19113600467574 384.27244146021985 347.1292690695676 385.52419939168135 344.06740213445954 387.68811644404195 341.56552483175506 389.85203349640256 339.0636475290505 392.70154698306146 337.38370707277426 395.5510604697204 335.703766616498 398.78782557642603 335.02165321588325 402.0245906831316 334.33953981526855 405.30971724878873 334.7266709234202 408.5948438144458 335.1138020315718 411.584378220441 336.52964491927366 414.5739126264362 337.9454878069755 416.9548498313013 340.241803350139 419.33578703616644 342.5381188933024 420.85884228604573 345.4744822483898 422.381897535925 348.4108456034772 422.88760654410856 351.67981875208625 423.3933155522921 354.94879190069526 422.82873045212887 358.2081124912415 422.2641453519657 361.4674330817877 420.68837835247876 364.37584938806384 419.11261135299185 367.28426569434 416.69064567498964 369.5372657613316 414.26867999698743 371.7902658283232 411.25409608629354 373.151959954282 408.2395121755997 374.51365408024077 404.94793776343676 374.8414725307265 401.6563633512738 375.16929098121227 398.4324271474864 374.42891107792343 395.208490943699 373.68853117463465 392.3897399198603 371.957470888887 389.57098889602156 370.22641060313924 387.45254702840543 367.6859124038059 385.33410516078925 365.1454142044726 384.1377738721494 362.0614689236503 382.9414425835095 358.977523642828 382.7924780755674 355.67302116550127 382.64351356762523 352.3685186881745 382.6431546411984 352.37156447476985 382.6427957147716 352.3746102613652 383.7288030181875 346.8395978716086 384.81481032160343 341.3045854818519 388.17955248924454 334.08631642847627 391.5442946568856 326.8680473751007 387.9521693582187 316.25552566467377 384.36004405955185 305.64300395424686 384.5399049429239 297.84195683653104 384.71976582629594 290.0409097188152 385.49150700266466 282.2400142933742 386.2632481790333 274.43911886793313 386.9934938091913 266.80702555333926 387.7237394393493 259.1749322387453 386.3970395615606 251.76229834248636 385.07033968377186 244.3496644462274 385.39124631765037 236.54869241202636 385.7121529515288 228.74772037782532 386.08316051240604 220.93667514452068 386.4541680732833 213.12562991121604 387.079832077006 205.5330481636547 387.70549608072866 197.94046641609341 388.1340111140125 195.06886094087184 388.5625261472963 192.1972554656503 388.99141705518196 190.37773019191525 389.42030796306767 188.5582049181802 390.2721897802934 186.89419860746264 391.12407159751905 185.2301922967451 392.3494329128421 183.81841707400693 393.57479422816516 182.40664185126877 395.1024169843656 181.3291501587875 396.6300397405661 180.25165846630625 398.37113843127855 179.57107417187467 400.11223712199103 178.89048987744306 401.9656190095061 178.64636857223059 403.81900089702117 178.40224726701814 405.67694733895576 178.60877729275376 407.5348937808903 178.81530731848935 409.2894208427438 179.4604851403735 411.04394790459736 180.10566296225764 412.59308239109885 181.15199081496888 414.1422168776004 182.19831866768013 415.39592301960863 183.58498392725738 416.6496291616169 184.9716491868346 417.53504149925317 186.61805880323905 418.42045383688946 188.2644684196435 418.88611216348954 190.07493298861345 419.35177049008956 191.88539755758345 419.37061072183246 193.7546927933061 419.3894509535754 195.6239880290288 419.38953662188953 195.623217355908 Z" fill="rgb(17, 24, 39)"></path></svg>