<svg xmlns="http://www.w3.org/2000/svg" version="1.1" xmlns:xlink="http://www.w3.org/1999/xlink" xmlns:svgjs="http://svgjs.dev/svgjs" viewBox="0 0 600 600"><path d="M181.80628967285156,250.5235595703125C179.8429387410482,208.90052541097006,131.1518325805664,163.61257044474283,151.17800903320312,133.5078582763672C171.20418548583984,103.40314610799153,254.05758666992188,68.06282552083333,301.9633483886719,69.8952865600586C349.8691101074219,71.72774759928386,424.86912536621094,113.3507932027181,438.6125793457031,144.50262451171875C452.3560333251953,175.6544558207194,383.5078430175781,218.32460021972656,384.424072265625,256.8062744140625C385.3403015136719,295.28794860839844,458.6387481689453,344.76439412434894,444.1099548339844,375.3926696777344C429.58116149902344,406.0209452311198,344.10995229085285,439.26702880859375,297.2513122558594,440.575927734375C250.39267222086588,441.88482666015625,182.1989517211914,414.9214579264323,162.95811462402344,383.2460632324219C143.71727752685547,351.57066853841144,183.76964060465494,292.14659372965497,181.80628967285156,250.5235595703125C179.8429387410482,208.90052541097006,131.1518325805664,163.61257044474283,151.17800903320312,133.5078582763672" fill="hsl(335, 77%, 60%)" transform="matrix(1.2592779846426772,-0.4583397030766664,0.4583397030766664,1.2592779846426772,-193.77373524097413,69.57944536143827)"></path><path d="M256.5739342415978 157.61832478724142C254.6105833097944 115.99529062789895 205.91947714931263 70.70733566167172 225.94565360194935 40.60262349329611C245.97183005458606 10.497911324920437 328.8252312386681 -24.842409262237766 376.7309929574181 -23.009948223012486C424.6367546761681 -21.177487183787207 499.63676993495716 20.445558419647 513.3802239144493 51.59738972864767C527.1236778939412 82.74922103764834 458.27548758632435 125.41936543665548 459.1917168343712 163.90103963099142C460.1079460824181 202.38271382532736 533.406392737691 251.85915934127786 518.8775994027305 282.4874348946633C504.34880606776966 313.11571044804833 418.87759685959907 346.3617940255222 372.0189568246056 347.67069295130347C325.1603167896121 348.97959187708443 256.9665962899376 322.0162231433608 237.72575919276966 290.3408284493508C218.4849220956017 258.66543375534036 258.5372851734012 199.2413589465839 256.5739342415978 157.61832478724142C254.6105833097944 115.99529062789895 205.91947714931263 70.70733566167172 225.94565360194935 40.60262349329611 " fill-opacity="0.05" fill="hsl(335, 77%, 60%)" opacity="1" stroke-opacity="1" stroke-width="18" stroke="hsl(340, 45%, 30%)" transform="matrix(0.23240925079480032,-1.3180583587435235,1.3180583587435235,0.23240925079480032,-5.151535489544187,713.1129167466686)"></path></svg>