<svg xmlns="http://www.w3.org/2000/svg" version="1.1" xmlns:xlink="http://www.w3.org/1999/xlink" xmlns:svgjs="http://svgjs.dev/svgjs" viewBox="0 0 600 600"><path d="M543.8481704951577 419.3717281681095C574.0837763708087 339.9214641910587 595.6806442500405 140.9685858748152 557.9843094111733 108.37696193275792C520.2879745723061 75.78533799070064 390.70681307328266 177.48690405108474 317.67016146195454 223.82198451576573C244.6335098506264 270.1570649804467 145.81152015539527 329.8429450056746 119.76439974320454 386.38744472084386C93.71727933101378 442.9319444360131 118.58639325313291 529.973799294411 161.38743898881 563.0889828067811C204.1884847244871 596.2041663191508 312.8272189062091 609.0314215681742 376.57067415726704 585.0785457950624C440.31412940832496 561.1256700219503 513.6125646195067 498.82199214516027 543.8481704951577 419.3717281681095C574.0837763708087 339.9214641910587 595.6806442500405 140.9685858748152 557.9843094111733 108.37696193275792 " fill="RGB(255, 105, 180)"></path><path d="M392.2774917917149 281.15183363783916C422.5130976673659 201.70156966078838 444.1099655465977 2.7486913445448806 406.41363070773053 -29.8429325975124C368.71729586886335 -62.434556539569684 239.1361343698399 39.26700952081441 166.09948275851178 85.60208998549541C93.06283114718366 131.9371704501764 -5.759158548047466 191.62305047540428 -31.806278960238217 248.16755019057354C-57.85339937242897 304.7120499057428 -32.98428545030984 391.7539047641412 9.816760285367252 424.86908827651104C52.617806021044345 457.98427178888073 161.25654020276636 470.8115270379042 224.99999545382428 446.8586512647923C288.7434507048822 422.90577549168034 362.04188591606385 360.60209761488994 392.2774917917149 281.15183363783916C422.5130976673659 201.70156966078838 444.1099655465977 2.7486913445448806 406.41363070773053 -29.8429325975124 " fill-opacity="0.05" fill="RGB(255, 105, 180)" opacity="1" stroke-opacity="0.72" stroke-width="29" stroke="hsl(352, 100%, 71%)" transform="matrix(1,0,0,1,75,75)"></path></svg>