<svg xmlns="http://www.w3.org/2000/svg" version="1.1" xmlns:xlink="http://www.w3.org/1999/xlink" xmlns:svgjs="http://svgjs.dev/svgjs" viewBox="0 0 600 600"><path d="M180.23559642212683 385.60210802168007C163.48167237020627 341.753943145378 144.63351003703568 198.95288978030638 186.5183265246659 163.3507957658207C228.4031430122961 127.748701751335 390.9685803291906 135.2094383439457 431.5444953479081 171.989543934766C472.12041036662555 208.76964952558632 454.0575873889237 341.62305579593135 429.9738166369706 384.03142931074257C405.89004588501746 426.4398028255538 328.6649075386633 426.17800523847694 287.04187083618933 426.4397850236332C245.41883413371536 426.70156480878944 196.9895204740474 429.45027289798213 180.23559642212683 385.60210802168007C163.48167237020627 341.753943145378 144.63351003703568 198.95288978030638 186.5183265246659 163.3507957658207 " fill="RGB(255, 165, 0) " stroke-width="17" stroke="hsl(30, 100%, 40%)" stroke-opacity="0.46" transform="matrix(1.05,0,0,1.05,-23.761338043212902,2.4537666320800895)"></path><path d="M232.99117765101948 393.5755589404077C216.23725359909892 349.7273940641056 197.38909126592833 206.926340699034 239.27390775355855 171.3242466845483C281.1587242411888 135.72215267006263 443.72416155808327 143.1828892626733 484.30007657680073 179.96299485349363C524.8759915955183 216.74310044431394 506.81316861781636 349.596506714659 482.72939786586323 392.0048802294702C458.6456271139101 434.4132537442814 381.4204887675559 434.15145615720456 339.797452065082 434.4132359423608C298.174415362608 434.67501572751706 249.74510170294005 437.42372381670975 232.99117765101948 393.5755589404077C216.23725359909892 349.7273940641056 197.38909126592833 206.926340699034 239.27390775355855 171.3242466845483 " fill-opacity="0.05" fill="RGB(255, 165, 0) " opacity="1" stroke-opacity="1" stroke-width="17" stroke="#111827" transform="matrix(0.9975000000000004,-5.537237335317968e-17,5.537237335317968e-17,0.9975000000000004,-5.223143119812107,57.28331554412836)"></path></svg>