<svg xmlns="http://www.w3.org/2000/svg" version="1.1" xmlns:xlink="http://www.w3.org/1999/xlink" xmlns:svgjs="http://svgjs.dev/svgjs" viewBox="0 0 800 400"><path d="M136.7712827947663 71.74887986460715C152.19729190934964 71.92825201629985 349.0881773260163 65.71001522023866 368.1614195135163 74.43946213999777C387.2346617010163 83.16890905975688 427.11505720882883 187.74290045379985 422.8699156072663 202.69058366099387C418.6247740057038 217.63826686818788 323.8564919419017 296.02391699432735 304.4842954900788 298.65471024790816C285.1120990382559 301.28550350148885 140.23913761247462 254.23021073618938 132.28696882992256 242.1524824647048C124.33480004737049 230.07475419322043 171.44989607601633 125.4409549581944 185.20176375179756 117.4887861756423C198.95363142757878 109.53661739309021 326.8459979640371 117.30941198944438 338.5649839666413 122.86995072642355C350.2839699692455 128.43048946340272 364.2152525213288 193.18386267303813 360.98655379086006 200.8968672303298C357.7578550603913 208.60987178762147 300.41851179867257 238.62481014211363 290.13450300961006 238.56501908579855C279.85049422054755 238.50522802948348 208.93867781429753 206.51719092010845 206.72642195492256 200.00000138560324C204.51416609554758 193.48281185109803 253.6023822413809 144.75336442271262 256.95066511898506 140.80717606822043 " fill="none" stroke-width="111" stroke="RGB(255, 99, 71)" stroke-linecap="round" stroke-opacity="1" transform="matrix(1.15184411015625,0,0,1.15184411015625,80.60919684975295,-12.244334558082699)"></path><defs><linearGradient id="SvgjsLinearGradient1000"><stop stop-color="RGB(255, 99, 71)" offset="0"></stop><stop stop-color="RGB(255, 215, 0) " offset="1"></stop></linearGradient></defs></svg>