<svg xmlns="http://www.w3.org/2000/svg" version="1.1" xmlns:xlink="http://www.w3.org/1999/xlink" xmlns:svgjs="http://svgjs.dev/svgjs" viewBox="0 0 600 600"><path d="M480.235595703125,511.25653076171875C532.9842859903971,456.28270721435547,501.7015660603841,193.71727498372397,451.9633483886719,136.6492156982422C402.22513071695965,79.58115641276041,234.5549799601237,113.87435150146484,181.80628967285156,168.84817504882812C129.05759938557944,223.8219985961914,85.73298899332681,409.4240976969401,135.47120666503906,466.4921569824219C185.2094243367513,523.5602162679037,427.48690541585285,566.230354309082,480.235595703125,511.25653076171875C532.9842859903971,456.28270721435547,501.7015660603841,193.71727498372397,451.9633483886719,136.6492156982422" fill="url(&quot;#SvgjsLinearGradient1000&quot;)" transform="matrix(1.1025,0,0,1.1025,-42.41011173248296,-55.010887985229544)"></path><defs><linearGradient id="SvgjsLinearGradient1000"><stop stop-color="hsl(340, 10%, 69%)" offset="0"></stop><stop stop-color="hsl(340, 8%, 47%)" offset="1"></stop></linearGradient><linearGradient id="SvgjsLinearGradient1001"><stop stop-color="hsl(340, 61%, 48%)" offset="0"></stop><stop stop-color="hsl(340, 89%, 20%)" offset="1"></stop></linearGradient></defs><path d="M480.235595703125,511.25653076171875C532.9842859903971,456.28270721435547,501.7015660603841,193.71727498372397,451.9633483886719,136.6492156982422C402.22513071695965,79.58115641276041,234.5549799601237,113.87435150146484,181.80628967285156,168.84817504882812C129.05759938557944,223.8219985961914,85.73298899332681,409.4240976969401,135.47120666503906,466.4921569824219C185.2094243367513,523.5602162679037,427.48690541585285,566.230354309082,480.235595703125,511.25653076171875C532.9842859903971,456.28270721435547,501.7015660603841,193.71727498372397,451.9633483886719,136.6492156982422" fill-opacity="0.42" fill="url(&quot;#SvgjsLinearGradient1001&quot;)" opacity="1" stroke-opacity="0.56" stroke-width="33" stroke="hsl(340, 15%, 60%)" transform="matrix(1,0,0,1,-10.576065063476562,-22.005340576171875)"></path></svg>