<svg xmlns="http://www.w3.org/2000/svg" version="1.1" xmlns:xlink="http://www.w3.org/1999/xlink" xmlns:svgjs="http://svgjs.dev/svgjs" viewBox="0 0 600 600"><path d="M170.8115234375,226.96334838867188C142.80105336507162,281.1518325805664,88.08900451660156,431.0209503173828,137.04188537597656,466.4921569824219C185.99476623535156,501.96336364746094,417.27749888102215,487.30367787679035,464.52880859375,439.79058837890625C511.78011830647785,392.27749888102215,447.12042744954425,231.15184275309244,420.54974365234375,181.4136199951172C393.97905985514325,131.67539723714194,346.7277425130208,133.7696304321289,305.1047058105469,141.3612518310547C263.48166910807294,148.95287322998047,198.82199350992838,172.77486419677734,170.8115234375,226.96334838867188C142.80105336507162,281.1518325805664,88.08900451660156,431.0209503173828,137.04188537597656,466.4921569824219" fill="hsl(340, 51%, 74%)" transform="matrix(1,0,0,1,0.6201019287109375,-11.7122802734375)"></path><path d="M181.8063002581373 191.6230418819403C153.79583018570892 245.81152607383484 99.08378133723886 395.68064381065125 148.03666219661386 431.1518504756903C196.98954305598886 466.6230571407294 428.27227570165945 451.9633713700588 475.5235854143873 404.4502818721747C522.7748951271152 356.9371923742906 458.11520427018155 195.81153624636087 431.54452047298105 146.07331348838562C404.97383667578055 96.33509073041037 357.7225193336581 98.42932392539734 316.0994826311842 106.02094532432312C274.47644592871023 113.6125667232489 209.81677033056567 137.43455769004578 181.8063002581373 191.6230418819403C153.79583018570892 245.81152607383484 99.08378133723886 395.68064381065125 148.03666219661386 431.1518504756903 " fill-opacity="0.05" fill="hsl(340, 66%, 24%)" opacity="1" stroke-opacity="1" stroke-width="12" stroke="hsl(340, 45%, 30%)" transform="matrix(1,0,0,1,21.0389404296875,48.75892639160156)"></path></svg>