<svg xmlns="http://www.w3.org/2000/svg" version="1.1" xmlns:xlink="http://www.w3.org/1999/xlink" xmlns:svgjs="http://svgjs.dev/svgjs" viewBox="0 0 600 600"><path d="M171.59684793362294 401.3088504731343C127.4868981859016 368.32455431021117 117.80102833319975 267.8009896536356 139.397888583037 219.89523047801714C160.99474883287425 171.98947130239864 249.08376606513337 109.55492387808225 301.1780094326464 113.87429541942339C353.2722528001594 118.19366696076452 434.8167525153287 195.1570077200419 451.9633487881151 245.81145972606402C469.10994506090157 296.46591173208617 450.7853372117805 391.8847756643778 404.0575870693651 417.8010074555562C357.3298369269498 443.7172392467346 215.70679768134428 434.2931466360575 171.59684793362294 401.3088504731343C127.4868981859016 368.32455431021117 117.80102833319975 267.8009896536356 139.397888583037 219.89523047801714 " fill="hsl(265, 45%, 57%)" transform="matrix(1.4737618051795904,0,0,1.4737618051795904,-132.27255709135397,-102.60103604640915)" stroke-width="0" stroke="hsl(340, 45%, 30%)"></path><defs><radialGradient id="SvgjsRadialGradient1000"><stop stop-color="hsl(340, 45%, 50%)" offset="0"></stop><stop stop-color="hsl(340, 45%, 80%)" offset="1"></stop></radialGradient></defs><path d="M85.20943412980705 382.46077592460585C41.099484382085706 349.4764797616827 31.413614529383864 248.95291510510714 53.01047477922111 201.04715592948867C74.60733502905836 153.14139675387017 162.6963522613175 90.70684932955378 214.7905956288305 95.02622087089492C266.8848389963435 99.34559241223606 348.4293387115128 176.30893317151342 365.57593498429924 226.96338517753554C382.7225312570857 277.6178371835577 364.3979234079646 373.0367011158493 317.67017326554924 398.95293290702773C270.9424231231339 424.86916469820613 129.3193838775284 415.445072087529 85.20943412980705 382.46077592460585C41.099484382085706 349.4764797616827 31.413614529383864 248.95291510510714 53.01047477922111 201.04715592948867 " fill-opacity="0.05" fill="hsl(265, 45%, 57%)" opacity="1" stroke-opacity="1" stroke-width="10" stroke="hsl(265, 55%, 35%)" transform="matrix(1.462736201647062,0,0,1.462736201647062,-20.75166699039636,-42.68820385897021)"></path></svg>